<?xml version="1.0" encoding="utf-8"?>
<!-- Generator: Adobe Illustrator 18.1.1, SVG Export Plug-In . SVG Version: 6.00 Build 0)  -->
<svg version="1.1" id="skype_1_" xmlns="http://www.w3.org/2000/svg" xmlns:xlink="http://www.w3.org/1999/xlink" x="0px" y="0px"
	 viewBox="0 0 100 100" enable-background="new 0 0 100 100" xml:space="preserve">
<g id="skype">
	<g display="none">
		<path display="inline" fill="#212121" d="M50,0C22.4,0,0,22.4,0,50s22.4,50,50,50s50-22.4,50-50S77.6,0,50,0z"/>
	</g>
	<path fill="#FFFFFF" d="M54,84.4c-13.9,0.7-20.3-2.3-26.3-8.1c-6.7-6.4-4-13.6,1.5-13.9c5.4-0.3,8.7,6.2,11.6,8.1
		c2.9,1.8,13.9,6,19.6-0.7c6.4-7.4-4.2-11.1-11.9-12.3c-10.9-1.7-24.8-7.7-23.8-19.6c1-11.9,9.9-18.1,19.3-19
		c11.9-1.2,19.6,1.8,25.7,7.2c7,6.2,3.2,13.1-1.3,13.6s-9.6-10.1-19.5-10.2c-10.2-0.2-17.1,10.9-4.5,13.9c12.6,3.2,26.2,4.4,31,16.1
		C80.4,71.1,68,83.6,54,84.4z M93.1,56.4c0.3-2,0.3-4,0.3-6c0-24.3-19.5-44-43.6-44c-2.3,0-4.7,0.2-7,0.5c-4-2.7-8.9-4.4-14.3-4.4
		c-14.4,0-26,11.7-26,26.3c0,5.4,1.5,10.2,4.2,14.4c-0.3,2.2-0.5,4.5-0.5,6.9c0,24.3,19.5,44,43.6,44c2.7,0,5.4-0.3,7.9-0.7
		c4,2.5,8.7,4,13.8,4c14.4,0,26-11.7,26-26.3C97.7,65.8,96,60.6,93.1,56.4z"/>
</g>
</svg>
