<?xml version="1.0" encoding="utf-8"?>
<!-- Generator: Adobe Illustrator 18.1.1, SVG Export Plug-In . SVG Version: 6.00 Build 0)  -->
<svg version="1.1" id="vkontakte" xmlns="http://www.w3.org/2000/svg" xmlns:xlink="http://www.w3.org/1999/xlink" x="0px" y="0px"
	 viewBox="0 0 100 100" enable-background="new 0 0 100 100" xml:space="preserve">
<path fill="#212121" d="M84.9,0H15.3C6.9,0,0,6.9,0,15.3v69.3c0,8.7,6.9,15.6,15.3,15.6h69.3c8.4,0,15.3-6.9,15.3-15.3V15.3
	C100.3,6.9,93.4,0,84.9,0z M81.1,70.2H72c0,0-1.9,0.3-4.7-1.3c-3.4-2.5-6.6-8.4-9.1-7.5c-2.5,0.9-2.5,6.3-2.5,6.3s0,1.3-0.6,1.9
	c-0.6,0.6-1.9,0.9-1.9,0.9H49c0,0-9.1,0.6-16.9-7.8c-8.8-9.1-16.2-27-16.2-27s-0.3-1.3,0-1.9c0.6-0.6,1.9-0.6,1.9-0.6h9.7
	c0,0,0.9,0,1.6,0.6c0.7,0.4,1,1.3,1,1.3s1.6,4.1,3.7,7.5c4.1,7.2,5.9,8.7,7.5,7.8c1.9-1.3,1.6-10,1.6-10s0-3.1-0.9-4.7
	c-0.9-1.3-2.5-1.6-3.1-1.6c-0.6,0,0.3-1.3,1.6-1.9c1.9-0.9,5-0.9,8.4-0.9c2.8,0,3.8,0.3,4.7,0.6c3.4,0.9,2.2,4.1,2.2,11.6
	c0,2.5-0.3,5.9,1.3,6.9c0.6,0.6,2.5,0,7.2-7.8c2.2-3.8,3.8-8.1,3.8-8.1s0.3-0.6,0.9-1.2c0.6-0.3,1.3-0.3,1.3-0.3h10.3
	c0,0,3.1-0.3,3.4,0.9c0.6,1.6-1.3,5-5.3,10.6c-6.9,9.1-7.8,8.4-1.9,13.8c5.6,5,6.6,7.5,6.9,7.8C85.8,69.9,81.1,70.2,81.1,70.2z"/>
</svg>
