<?xml version="1.0" encoding="utf-8"?>
<!-- Generator: Adobe Illustrator 18.1.1, SVG Export Plug-In . SVG Version: 6.00 Build 0)  -->
<svg version="1.1" id="skype_1_" xmlns="http://www.w3.org/2000/svg" xmlns:xlink="http://www.w3.org/1999/xlink" x="0px" y="0px"
	 viewBox="0 0 100 100" enable-background="new 0 0 100 100" xml:space="preserve">
<g id="skype">
	<g>
		<path fill="#212121" d="M50,0C22.4,0,0,22.4,0,50c0,27.6,22.4,50,50,50s50-22.4,50-50C100,22.4,77.6,0,50,0z"/>
	</g>
</g>
<g id="Layer_2">
</g>
<path fill="#FFFFFF" d="M82.5,33.4L82.5,33.4L82.5,33.4l0-1.5c0-2.9-2.4-5.3-5.3-5.3l0,0L49.9,46.6L22.8,26.5
	c-2.9,0-5.3,2.4-5.3,5.3v36.4c0,2.9,2.4,5.3,5.3,5.3h1.9v-1.8V38.5L49.9,56l25.2-17.3l0,0l0,34.9c5.6-0.1,7.3-1.4,7.4-5.3L82.5,33.4
	z"/>
<line fill="none" stroke="#FFFFFF" stroke-width="2" stroke-miterlimit="10" x1="22.8" y1="27.5" x2="77.2" y2="27.5"/>
<polygon fill="none" stroke="#FFFFFF" stroke-width="2" stroke-miterlimit="10" points="25.9,72.5 73.9,72.5 49.9,56 "/>
</svg>
