<?xml version="1.0" encoding="utf-8"?>
<!-- Generator: Adobe Illustrator 18.1.1, SVG Export Plug-In . SVG Version: 6.00 Build 0)  -->
<svg version="1.1" id="Full-c" xmlns="http://www.w3.org/2000/svg" xmlns:xlink="http://www.w3.org/1999/xlink" x="0px" y="0px"
	 viewBox="0 0 200 200" enable-background="new 0 0 200 200" xml:space="preserve">
<circle id="Border" fill="none" stroke="#FFFFFF" stroke-width="10" stroke-miterlimit="10" cx="100.1" cy="100" r="91.4"/>
<path id="Hair" fill="#FFFFFF" d="M164.5,35.1c0,0-4-5.8-12.7-10.5c-54.5-29.6-95.3-5.6-98.9-2.8c-86,68-21.3,138.8-21.3,138.8
	s32.6-31.6,36.5-35.5c1.3-1.3-21.8-11.9-17.5-11.1c7.2,1.3,0-3.6-2.3-11.2c-2.3-7.6-5.6-1.9-5.6-1.9c-0.2-3.9,8.4-8.2,4.4-7.6
	c-4.1,0.5-6.4,2.3-6.4,2.3c0.7-2.9,6.7-6.6,5.1-6.7c-1.6-0.1-6.5,3.5-6,2.7c3-5.5-0.6-8.7-0.3-11.2c0.3-2.5,4.1-3.9,3.3-7.2
	c-0.9-3.3-5.7-3.5-3.5-3.5s6.4,0,6.3-2c-0.1-2,2.7-2.9,4.3-5.6s-10.9-0.3-5.9-1.5s11.1-7.9,10.4-7.1c-0.5,0.6-7.9,1.3-5.9,1
	c2-0.2,6.3-3.1,5.9-3.3c0,0-3.9-0.5,0-1.8s3.7-4.1,3.1-3c-0.7,1.1-2.7-0.9-2.6-0.9c2.1-0.3,2.5-2.1,4.1-3.3c1.7-1.3-0.5-1.7,0.2-4.7
	c1.7-7.3-12.8-6.7,1.8-6.1S79.3,29,79.3,29c-1.6-1.1-14.3-5.1-8.8-3.9c3.6,0.8,15.6,0.2,14.5,0c-1.1-0.2-6.6-3.6-6.6-3.6
	s5.1,1.4,7.9,1.6c5.1,0.4,0.7-9,10.4-0.8s15.9,5.4,15.3,5.5c-1.2,0.3-6.5-9.1-6.5-9.1c3.3,2.3,11.5,9.7,19.9,9.4
	c8.4-0.3,9.4-2.8,9.4-2c0,0.8-1.4,3.4,3.6,7.6c2.1,1.8,6.1,4,6.2,1.8c0.2-2.7,5.1,9.2,3.3,10.1c-1.8,0.9-11.9-0.1-10.5,0.1
	c1,0.1,9.1,3.3,11.1,4.7c0.7,0.5,1.1,0.8,1.1,0.8l15.8-15.2L164.5,35.1L164.5,35.1z"/>
<path id="Eye" fill="#FFFFFF" d="M141.9,82.3c0,0,0.9-2.7,2.3-3.3c0.9-0.4,3.9,2.3,3.1,2.9C146.6,82.5,143.3,83,141.9,82.3z"/>
<path id="Face" fill="#FFFFFF" d="M163.3,96.8c1.8-1.3,6.6-3.9,6.6-6.3c0-2.3-3.7-3.6-3.7-3.6l0,0c0,0-2.7-2.6-3.5-3.5
	c-0.9-1-2.5-3.3-4.4-5.3c-0.1-0.1-0.3-0.3-0.4-0.3c-0.7-0.5-2.9-2-3.1-2.4c-0.5-1.3-1.4-4.7-1.7-4.9c-0.1-0.1-1.6,2.3-1.9,2.3
	c-1.3,0.5-3.1-0.2-2.9,0.1c1.1,2.5-0.9,3.9-0.2,5.5c1.9,4.3,0.1,7,0.1,7.1l-1.3,2.7c0,0-0.5-3.5-2.4-4.1c-1.1-0.3-4-1.1-6.3,0.5
	c-1.8,1.3,3.5-8.4,7.6-11c0.6-0.4-4.4,1.8-7.1,3c-0.3,0.1-0.7-0.3-0.4-0.5l0,0c0.3-0.3-0.1-0.7-0.4-0.5c-0.5,0.3-1.1,0.5-1.5,0.8
	l0,0c0,0,0.9-1.8,3.3-3.2c0.2-0.1,1.6-1,2.4-1.8c0.5-0.5,1.1-0.8,1.7-1c1.1-0.3,2.9-0.9,3.9-1.5c1.3-1,3.3-0.9,3.3-0.9l0,0
	c-3.9-4.7-4.7-9.4-4.7-11.5c0-0.5-0.3-0.7-0.3-0.7c-2.5-2.4-8.7-5.9-10.6-6.8c-0.7-0.3,1.6,2.9,1.1,3.6c-1.3,1.7-3.3,1.6-3.1,3.5
	c0.2,2.7-4.9-0.8-4.5-0.4c2.3,2-1.3,4.3-0.9,3.8c0.6-0.7-0.5-1.9-0.7-2.1c-2.7-2-4.7-5.5-8.9-5.7c0,0,4.6,3.1,2.5,6.5
	c-0.5,0.9-1.9,1.6-3.5,1.6c-3.8-0.1-7.7-3.1-7.7-3.1c-0.1,2.8,6.6,9.5,7.9,11.5c1.7,2.6-5.7,1.4-7.3-0.3c-0.9-0.9,1,2.1,1.6,5.2
	c0.7,3.2,3.7,7,5.9,8.1c3.6,1.7,0.6,7.8-2.5,6.9c-3.3-0.9-8.5-3.5-8.5-3.4c3.3,4,6.9,8.9,5.3,12c-0.3,0.5-1-3.1-2.7-3.4
	c-2.8-0.4-2.5,0.9-4.4,2.7c-2,2-7.1-1.9-8.1-2.3c-1-0.3-5.3-0.2-7.2,1.5c-1.9,1.7-5.8,6.4-1.9,12.2c0.5,0.7,1.7,1.1,2.1,3
	c0.5,1.9,6.1,5.3,7.7,6.1c0.8,0.4,3.3,1,4.1,0.8c0.9-0.1,1.5-0.2,1.5-0.2l0,0c0,0,2.6,1.5,4.4,1.3c1.8-0.1,3.3-1.6,3.3-1.6l0,0
	c0,0,0.2,4.3-10.1,2.5c-1.9-0.3,2.3,6.4,2.3,6.4l0,0c0,0,1,17.3-2.8,22.3c-3.8,5.1-4.5,2.9-4.5,2.9s-4.5-12.5-8.4-15.1
	c-6.1-4-8.5,1.7-8.5,1.7l0,0c0,0,3.2,9,4.1,15.5c0.9,6.6,0.9,14.3,0.9,14.3l0,0c0,0,15.7,0.8,18.8,1.8c3.9,1.3,5.9,3.7,6.4,4.6
	c7.7,15.7,6.3,14.3,8.9,13c0.5-0.3,8.7-2.1,8.7-2.1l0,0c0,0-1.1-8.9,0.5-14.3c1.9-6.5,13-27.3,15.3-29.3l0,0c0,0,0.3-5.2,0.4-5.9
	c0.5-2.9-12.4-2.3-16-2.3s-8.3-3.7-8.7-4.7c0-0.1-0.1-0.1-0.1-0.2c-0.5-1.5,0.7-3.1,2.3-3.1c0.8,0,1.9,0.1,3.2,0.7
	c3.8,1.7,9.5,4.4,17.5,4.1c7.9-0.3,17.6-1.7,19.6-2.7c2-1,5.5-4.3,5.6-6.2c0.1-1.6-1.5-2.3-1.5-4.5c0-1.2-1.5-1.9-2.5-1.9
	c-0.7,0-1.2-0.4-0.7-1.9c0.9-2.9,2.7-4.8,2.6-5.9c-0.1-0.3-2-1.3-3.6,0.8c-0.5,0.6-2.1,2.4-2.6,3c-0.1,0.2-0.5,0.1-0.5-0.1l0,0
	c-0.1-0.7,1.1-2,2.3-3.7c1.8-2.3,3.1-3.7,3.1-3.7l0,0c0,0,1.3-2.1,0.7-2.7C163.3,99.9,161.5,98.1,163.3,96.8z M100.2,101.2
	c-1.3-1.5-1.5-1.9-3.3-2.9c0,0,0,0-0.1,0l-1.5-0.6c-0.4-0.1-0.3-0.7,0.1-0.7c1.7,0.1,4.2,1.1,5.4,5.1L100.2,101.2z M104.6,111.2
	c-0.9-0.1,3.1-0.4,3.1-0.7c0-0.1-0.1-0.3-0.3-0.5c-0.6-0.8-0.4-1,0.5-0.5c0.9,0.5,1.7,1.1,1.7,1.4
	C109.5,111.7,107.3,111.5,104.6,111.2z M155.5,95.5l1.2,0.5c0.7,0.3,1.4,0.5,2.1,0.5h0.1l1.4,0.1C156.5,97.7,155.5,95.5,155.5,95.5z
	 M162,93.9c-0.3,0.1-0.5-0.3-0.3-0.5c0.5-0.7,1.5-1.5,2.5-1.6c1.8-0.2,2.3,0.5,2.3,0.5l0,0c0,0-0.9,1.7-2.5,1.3c-0.2,0-0.5,0-0.7,0
	L162,93.9z"/>
</svg>
