<?xml version="1.0" encoding="utf-8"?>
<!-- Generator: Adobe Illustrator 18.1.1, SVG Export Plug-In . SVG Version: 6.00 Build 0)  -->
<svg version="1.1" id="Full-c" xmlns="http://www.w3.org/2000/svg" xmlns:xlink="http://www.w3.org/1999/xlink" x="0px" y="0px"
	 viewBox="0 0 200 260" enable-background="new 0 0 200 260" xml:space="preserve">
<path opacity="0.8" fill="#E7E7E8" d="M140.1,126c-1.3-3-1-12.4-1-17c0-3,1.7-11.3,1.2-16.3c0-1.5-0.4-3-1.1-4.5
	c-0.4-1.1-1.1-3.3-1.5-7.8c-0.9-7.8,0.7-4.8-0.2-13.4c-1.5-12.1-8.2-15.8-8.2-15.8s-2.7-1.5-6-3.3c-0.8-0.4-1.7-0.7-2.5-0.9
	c-1.8-0.6-4.6-0.6-5.7-0.8c-0.5-0.1-1-0.2-1.4-0.4l-4.2-1c-0.4-0.2-0.7-0.7-0.7-1.1l0-4.8c0,0-3.3,2.3-4.2,3l4.9-4.6
	c0,0,4.5-5.6,3.9-19.2c-0.5-12.6-12.5-12.6-13-12.6c-0.6,0-12.5,0-13,12.6c-0.6,13.6,3.9,19.2,3.9,19.2l4.9,4.6
	c-0.9-0.7-4.2-3-4.2-3l0,4.8c0,0.5-0.3,0.9-0.7,1.1l-4.3,1c-0.5,0.2-0.9,0.3-1.4,0.4c-1.1,0.1-3.9,0.2-5.7,0.8
	c-0.9,0.2-1.7,0.5-2.5,0.9c-3.2,1.8-6,3.3-6,3.3s-6.7,3.7-8.2,15.8c-0.9,8.6,0.7,5.6-0.2,13.4c-0.4,4.5-1.1,6.7-1.5,7.8
	c-0.7,1.5-1.1,3-1.1,4.5c-0.5,5,1.4,13.3,1.4,16.3c0,4.6,0.3,14-1,17c-1.9,2.6-4.9,7.5-4.9,11.2c0,3.4,2.2,9.4,3.1,10.6
	c0.2,0.2,0.7,1.4,1.3,2.1c0.2,0.3,0.6,0.6,0.9,0.4c0.6-0.6,0.5,0.2,1,0.2c0.5,0,0.4-0.8,1.1-0.2c1.2,1.3,1.5-0.5,1.8-0.2
	c1.1,1.1,1.8,0.4,1.8,0.4s-3.8-4.3-4.2-8.4c-0.4-4.2,2.2-7.2,2.2-7.2s1.6,3.5,0.7,7.2c-0.7,2,1.9,3.5,1.9,3.5s2-0.6,1.3-10.8
	c-0.9-10.2-1.1-2.4-0.7-8.7c0.4-6.3,4.3-16.7,4.3-16.7s0.9-15.6,0.5-18.4c0-1.9,1.3-7.8,1.3-7.8s0.6-3.5,1.3-6.5
	c0-1.1,0.2,5.6,1.7,9.3c0.4,1.3,2.9,26,3.8,27.7c1.1,5.9-1.5,16.3-1.5,16.3s-4.3,14.7-4.1,21.2c0.3,6.9,2,23.3,2,27.2
	c0,2.6-1.3,2.8-1.3,6.9c0,4.1,0.2,20.6,1.7,27.1c0.9,3.9,2.2,5.6,2.6,9.3c2,16,0.7,15.8-0.4,17.3c-1.8,2.6-7.4,4.8-7.4,4.8
	s-1.7,2.2,0,3.3c1.2,0.6,1.9-1.1,1.9-1.1s0,1.6,1.5,2c1.3,0,2-1.1,2-1.1s0.4,1.1,1.3,1.1c1.3,0,1.3-1.3,1.3-1.3s0,1.5,1.5,1.3
	c1.3-0.2,1.5-1.3,1.5-1.3s0.4,1.3,1.5,1.3c1.1,0,1.7-0.6,2.8-2.8c0.9-1.9,2.8-2.8,2.4-5.6c-0.3-3.1-0.3-1.8-0.7-3.3
	c-0.6-2.2,1.7-28.8,2.4-30.1c0.6-1.1,1.9-13.5,0.6-19.1c-1.3-6.5-0.7-19.1,0.6-20.4c1.3-1.3,3-8.4,4.3-12.7c1.3-4.4,2.1-7.1,1.7-8
	h2.8c-0.4,0.9,0.4,3.6,1.7,8c1.3,4.3,3,11.4,4.3,12.7c1.3,1.3,1.9,13.9,0.6,20.4c-1.3,5.6,0,18,0.6,19.1c0.7,1.3,3,27.9,2.4,30.1
	c-0.4,1.5-0.4,0.2-0.7,3.3c-0.4,2.8,1.5,3.7,2.4,5.6c1.1,2.2,1.7,2.8,2.8,2.8c1.1,0,1.5-1.3,1.5-1.3s0.2,1.1,1.5,1.3
	c1.5,0.2,1.5-1.3,1.5-1.3s0,1.3,1.3,1.3c0.9,0,1.3-1.1,1.3-1.1s0.7,1.1,2,1.1c1.5-0.4,1.5-2,1.5-2s0.7,1.7,1.9,1.1
	c1.7-1.1,0-3.3,0-3.3s-5.6-2.2-7.4-4.8c-1.1-1.5-2.4-1.3-0.4-17.3c0.4-3.7,1.7-5.4,2.6-9.3c1.5-6.5,1.7-23,1.7-27.1
	c0-4.1-1.3-4.3-1.3-6.9c0-3.9,1.7-20.3,2-27.2c0.2-6.5-4.1-21.2-4.1-21.2s-2.6-10.4-1.5-16.3c0.9-1.7,3.2-26.4,3.6-27.7
	c1.5-3.7,1.7-10.4,1.7-9.3c0.7,3,1.3,6.5,1.3,6.5s1.3,5.9,1.3,7.8c-0.4,2.8,0.7,18.4,0.7,18.4s3.9,10.4,4.3,16.7
	c0.4,6.3,0.2-1.5-0.7,8.7c-0.7,10.2,1.3,10.8,1.3,10.8s2.6-1.5,1.9-3.5c-0.9-3.7,0.7-7.2,0.7-7.2s2.6,3,2.2,7.2
	c-0.4,4.1-4.2,8.4-4.2,8.4s0.7,0.7,1.8-0.4c0.3-0.3,0.6,1.5,1.8,0.2c0.7-0.7,0.6,0.2,1.1,0.2c0.5,0,0.4-0.8,1-0.2
	c0.2,0.2,0.7-0.1,0.9-0.4c0.6-0.7,1.1-1.9,1.3-2.1c0.8-1.2,3.1-7.1,3.1-10.6C145,133.5,142,128.6,140.1,126z"/>
</svg>
