<?xml version="1.0" encoding="utf-8"?>
<!-- Generator: Adobe Illustrator 18.1.1, SVG Export Plug-In . SVG Version: 6.00 Build 0)  -->
<svg version="1.1" id="Layer_1" xmlns="http://www.w3.org/2000/svg" xmlns:xlink="http://www.w3.org/1999/xlink" x="0px" y="0px"
	 viewBox="0 0 200 200" enable-background="new 0 0 200 200" xml:space="preserve">
<g id="Brain">
	<path fill="#E8E8E8" d="M192.7,82.5c0,0-32.8-4.9-44.1-6S29.8,70.7,42.9,117.9C55.1,162,100,140.6,100,140.6l41.2,43.8
		c0,0-1.4,0.3,7.5-6.4c1.3-1-11.7-16.9-9.2-17.5c34.5-8.1,48.1-37.7,53.5-58.1c4.2-16.3,1.8-33.7-7.3-47.8
		c-11.7-18.3-36.1-39-86.6-39c-64.4,0-85.5,33.8-92.3,53.2c-3.1,8.8-2.2,18.4,2.3,26.5c5.3,9.6,15.2,21.3,32.1,23.4"/>
	<path fill="none" stroke="#574256" stroke-width="6" stroke-miterlimit="10" d="M183.8,81.1c0,0-23.8-3.6-35.2-4.7
		S29.8,70.7,42.9,117.9C55.1,162,100,140.6,100,140.6l41.2,43.8c0,0,5.3-2.4,9.3-6.4c1.1-1.1-13.4-16.9-11-17.5
		c34.5-8.1,48.1-37.7,53.5-58.1c4.2-16.3,1.8-33.7-7.3-47.8c-11.7-18.3-36.1-39-86.6-39c-64.4,0-85.5,33.8-92.3,53.2
		c-3.1,8.8-2.2,18.4,2.3,26.5c5.3,9.6,17.4,22.1,34.3,24.3"/>
	<path fill="none" stroke="#574256" stroke-width="6" stroke-miterlimit="10" d="M130.4,50.9c0,0-56.8-12-97.2,27.2"/>
	<path fill="none" stroke="#574256" stroke-width="6" stroke-miterlimit="10" d="M90.1,31.9c0,0-1.7,5.3-34.6,30
		c-5.1,3.8,16.9,20.3,16.9,20.3"/>
	<path fill="none" stroke="#574256" stroke-width="6" stroke-miterlimit="10" d="M157.1,49.2c0,0-1.7,22.9-20.7,26.6"/>
	<path fill="none" stroke="#574256" stroke-width="6" stroke-miterlimit="10" d="M144.3,97.4c0,0,6.2,29.9,39.4,28.5"/>
	<path fill="none" stroke="#574256" stroke-width="6" stroke-miterlimit="10" d="M96.4,78.1c0,0,21.8,21.8,32.1,9.9"/>
	<path fill="none" stroke="#574256" stroke-width="6" stroke-miterlimit="10" d="M98.5,112.8c0,0,11.2-5.3-2.1-34.6"/>
	<path fill="none" stroke="#574256" stroke-width="6" stroke-miterlimit="10" d="M79,109.4c0,0,19.6,13.6,7.5,35.4"/>
	<path fill="none" stroke="#574256" stroke-width="6" stroke-miterlimit="10" d="M157.1,117.9c0,0-49.3,6.5-60.7,24.2"/>
</g>
</svg>
