<?xml version="1.0" encoding="utf-8"?>
<!-- Generator: Adobe Illustrator 18.1.1, SVG Export Plug-In . SVG Version: 6.00 Build 0)  -->
<svg version="1.1" id="Full-c" xmlns="http://www.w3.org/2000/svg" xmlns:xlink="http://www.w3.org/1999/xlink" x="0px" y="0px"
	 viewBox="0 0 200 200" enable-background="new 0 0 200 200" xml:space="preserve">
<g id="_x2B_">
	<g id="Bottle">
		<path fill="#E8E8E8" d="M83.3,58.8V17.5h-8h-8v41.5c0,0-20.8,10.6-20.8,25.2v104c0,3.9,3.2,7.1,7.2,7.1h21.7h21.7
			c3.9,0,7.2-3.2,7.2-7.1V84C104.2,69.4,83.3,58.8,83.3,58.8z M51.6,85.2c0,0,2-16,15.7-17.7C61.1,71.9,55.9,77.8,52,84.4L51.6,85.2
			z M96.5,154.3H54.8v-44h41.7V154.3z"/>
		<polygon fill="#E8E8E8" points="75.3,14.3 83.3,14.3 83.3,4 75.3,4 74.4,4 67.3,4 67.3,14.3 74.4,14.3 		"/>
	</g>
	<path id="Glass" fill="#E8E8E8" d="M161.4,144.9h-19.7H122c-1.6,0-2.8,1.4-2.7,3l4.7,44.6c0.2,1.4,1.3,2.4,2.7,2.4l15,0.3l14.9-0.3
		c1.4,0,2.5-1.1,2.6-2.4l4.8-44.6C164.2,146.4,162.9,144.9,161.4,144.9z M156.6,169.1c0,0-4.6-3.3-9.8-3.1s-7.3,4.1-10.9,4.1
		c-5.4,0-9-4.1-9.7-4.4c-0.6-0.4-1.7-14.4-1.7-14.4h33.7L156.6,169.1z"/>
</g>
</svg>
