<?xml version="1.0" encoding="utf-8"?>
<!-- Generator: Adobe Illustrator 18.1.1, SVG Export Plug-In . SVG Version: 6.00 Build 0)  -->
<svg version="1.1" id="Full-c" xmlns="http://www.w3.org/2000/svg" xmlns:xlink="http://www.w3.org/1999/xlink" x="0px" y="0px"
	 viewBox="0 0 200 200" enable-background="new 0 0 200 200" xml:space="preserve">
<g id="aids_x5F_1">
	<g>
		<path fill="#E8E8E8" d="M194.3,132.2c-22.5-13.9-43.6-14.3-54.6-13.1c11.9-7.2,32.6-23.2,44.6-52.7c-33.6,4.7-53.4,23.1-60.8,31.3
			c0.3-1.3,0.6-2.8,0.9-4.3c0.8-3.6,1.3-7,1.7-10.3l-60.6,60.6c4.3-0.1,8.2-0.4,11.3-0.9c-5.6,5.9-11.3,14.5-15.3,26.6
			c27-5.3,39-20.9,41.9-25.2c0.1,0.1,0.1,0.1,0.1,0.1s2.3,48.9-1.7,52.8h4.2h0.9h3.8c-3.9-3.9-1.7-52.8-1.7-52.8s0.1,0,0.1-0.1
			c2.9,4.4,14.8,19.9,41.9,25.2c-4.1-12.1-9.9-20.6-15.4-26.6C147.6,144.5,170.1,145.1,194.3,132.2z"/>
	</g>
</g>
<g id="Line">
	<line fill="none" stroke="#E8E8E8" stroke-width="6" stroke-miterlimit="10" x1="18.3" y1="181.8" x2="183.8" y2="16.3"/>
</g>
<g id="aids_x5F_2">
	<g>
		<path display="none" fill="#E8E8E8" d="M95.9,113.7l49.1-49c1.9-1.8,1.9-5,0-6.8l-6.1-6l-2.2,2.2l4.6,4.6c1.4,1.5,1.4,3.8,0,5.2
			l-35.8,35.7c-1.4,1.4-3.8,1.4-5.2,0l-4.6-4.6l-12.7,12.7l6.1,6.1C91,115.5,94.1,115.5,95.9,113.7z"/>
		<path display="none" fill="#E8E8E8" d="M90.7,89.8c-1.3-1.3-1.7-2.9-1.3-4.6l2.9,2.9l1.9-1.9l-3.4-3.4l3.2-3.2l3.4,3.4l1.9-1.9
			l-3.4-3.4l3.2-3.2l3.4,3.4l1.9-1.9l-3.4-3.4l3.1-3.1l3.4,3.4l1.9-1.9l-3.4-3.4l3.1-3.1l3.4,3.4l1.9-1.9l-3.4-3.5l2.7-2.7l3.4,3.5
			l1.9-1.9l-3.4-3.5l2.7-2.7l3.4,3.5l1.9-1.9l-3.4-3.5l2.7-2.7l3.4,3.5l1.9-1.9l-3.4-3.5l1.3-1.3c1.4-1.5,3.8-1.5,5.2,0l5.9,5.8
			l2.2-2.2l-7.8-7.8c-1.9-1.8-4.9-1.8-6.8,0L75.3,93c-1.8,1.8-1.8,4.9,0,6.8l7.8,7.8l12.7-12.7L90.7,89.8z M82.5,98.2l-4.8-4.8
			l1.9-1.9l4.8,4.8L82.5,98.2z M87.3,93.3l-4.8-4.8l1.9-1.9l4.8,4.8L87.3,93.3z"/>
		<path fill="#E8E8E8" d="M122.8,28.4c-0.8-0.8-2.2-0.8-2.9,0l-1.2,1.1c-0.8,0.8-0.8,2.1,0,3l4.4,4.5L67.7,92.4
			c-1.8,1.8-1.8,4.8,0,6.6l7.2,7.2v4.6l-37.9,37.9l-1.2,3.9l-1.1,3.6l48.4-48.4l-7.8-7.8c-1.8-1.8-1.8-4.9,0-6.8l49.1-49
			c1.8-1.8,5-1.8,6.8,0l7.8,7.8l3.6-3.7l-1.2-1.2L122.8,28.4z"/>
		
			<rect x="82.4" y="88.7" transform="matrix(-0.7071 -0.7071 0.7071 -0.7071 82.8616 214.3926)" fill="#E8E8E8" width="6.8" height="2.6"/>
		
			<rect x="77.6" y="93.5" transform="matrix(-0.7071 -0.7071 0.7071 -0.7071 71.3311 219.1238)" fill="#E8E8E8" width="6.8" height="2.6"/>
		<path fill="#E8E8E8" d="M125.6,48.1l-1.3,1.3l3.4,3.5l-1.9,1.9l-3.4-3.5l-2.7,2.7l3.4,3.5l-1.9,1.9l-3.4-3.5l-2.7,2.7l3.4,3.5
			l-1.9,1.9l-3.4-3.5l-2.7,2.7l3.4,3.5l-1.9,1.9l-3.4-3.4l-3.1,3.1l3.4,3.4l-1.9,1.9l-3.4-3.4l-3.1,3.1l3.4,3.4l-1.9,1.9l-3.4-3.4
			l-3.2,3.2l3.4,3.4l-1.9,1.9L93.7,80l-3.2,3.2l3.4,3.4l-1.9,1.9l-2.9-2.9c-0.4,1.6,0.1,3.3,1.3,4.6l5.1,5.1l40.9-41l-5.9-5.8
			C129.4,46.7,127.1,46.7,125.6,48.1z"/>
		<path fill="#E8E8E8" d="M161.3,27l-12.3-12.3c-1-1-2.6-1-3.6,0l-0.7,0.7c-1,1-1,2.7,0,3.7l9.3,9.3L140.4,42l2.9,3l1.2,1.2l18-18
			L161.3,27z"/>
	</g>
</g>
</svg>
