<?xml version="1.0" encoding="utf-8"?>
<!-- Generator: Adobe Illustrator 18.1.1, SVG Export Plug-In . SVG Version: 6.00 Build 0)  -->
<svg version="1.1" id="Layer_1" xmlns="http://www.w3.org/2000/svg" xmlns:xlink="http://www.w3.org/1999/xlink" x="0px" y="0px"
	 viewBox="0 0 200 200" enable-background="new 0 0 200 200" xml:space="preserve">
<g id="Intestines">
	<path fill="none" stroke="#E8E8E8" stroke-width="5" stroke-miterlimit="10" d="M9.2,129.2c0,0,13.2-64.8,7.5-119.4
		C15.4-3.4,71.3,29.2,97.3,28.6c23-0.6,60.4-29.9,75.5-22.3s-11,50.3-2.5,72c8.5,21.7,26.8,43.4,18.3,66.1s-45.4,6.3-64.9,5.3
		c-11.5-0.6-32.6,15.1-29,45.3"/>
	<path fill="none" stroke="#E8E8E8" stroke-width="2" stroke-miterlimit="10" d="M112.1,51.5c0,0-11.6,6.9-28,5.7
		c-16.4-1.3-25.5-8.7-33-7.6c-4.6,0.7-8.2,4.7-7.9,7.7s1.9,7.7,15.7,12.4c13.8,4.7,14.5,17.6,12.6,21.1c-1.9,3.5-9.4,22.7-22.3,22
		s-11-12.9-11-12.9s2.2-10.7,16-11.6c13.8-0.9,23,9.4,24.5,17.9c1.1,6,1.3,14.2-2.8,23c-3.1,6.7,5.3,9,8.2,7.9
		c5-2,10.4-7.1,12.3-15.7c2.2-10.1-0.6-15.7-6.3-32.7c-5.7-17,1.7-20.5,8.2-19.2c7.9,1.6,7.9,13.8,9.4,24.5c1.6,10.7,11,11,11,11
		s12.9-1.9,7.2-19.5c-5.7-17.6-7-29.3,1.4-34.6c8.9-5.7,15.9,5,16.2,12.9c0.3,7.9-2.8,15.7-2.2,26.1c0.6,9.3,2.8,18.2,11,24.2
		s0.3,17.3-9.8,10.1s-12.6-10.1-22.7-6.3s-16,17.3-16,17.3"/>
</g>
</svg>
