<?xml version="1.0" encoding="utf-8"?>
<!-- Generator: Adobe Illustrator 18.1.1, SVG Export Plug-In . SVG Version: 6.00 Build 0)  -->
<svg version="1.1" id="Full-c" xmlns="http://www.w3.org/2000/svg" xmlns:xlink="http://www.w3.org/1999/xlink" x="0px" y="0px"
	 viewBox="0 0 200 200" enable-background="new 0 0 200 200" xml:space="preserve">
<g id="_x2B_">
	<path id="s-4" fill="#E8E8E8" d="M175.6,40.1l-93.5,93.5c-0.9,0.9-0.9,2.4,0,3.4l15.6,15.6c0.9,0.9,2.4,0.9,3.3,0l93.5-93.5
		c0.9-0.9,0.9-2.5,0-3.3L179,40.1C178.1,39.2,176.6,39.2,175.6,40.1z M154.1,91.1L99.2,146l-10.7-10.8l54.9-54.9L154.1,91.1z"/>
	<path fill="#E8E8E8" d="M90.2,158.5l0.5,0.5c0.1,0,0.2,0,0.2,0c1.1,0,2.1,0.3,2.8,0.8l5.8-5.8l-19-19l-2.6,2.6c0.7,1.2,1,2.7,0.7,4
		c0.7,0.9,1.1,2,1.1,3.1c1.2,1.2,1.7,3,1.4,4.7l0.6,0.6c2.3,0.3,3.6,2,3.9,3.9l0.6,0.6C88.6,154.9,89.9,156.6,90.2,158.5z"/>
	<path id="s-2" fill="#E8E8E8" d="M5.7,128.8c0,0,9.4,2.8,12.4,6.6c8,10.3,20.6,13.4,26.5,9.1c9-6.4,14.9,1.1,14.9,1.1
		s2.3,1.1,13.7,8.3c2.3,1.4-5.2-3.7-14-14.1c-7-8.2-17.8,2.3-21.7,1.9c-3-0.2-6.6-1.4-8.8-3.4c-0.1-0.1-0.4-0.4-0.5-0.5
		C23.6,132.9,13.2,128.8,5.7,128.8z"/>
	<path id="s-1" fill="#E8E8E8" d="M30.2,118.1c0,0,5.3,2.7,6.6,5.3c3.6,7,10.8,10.3,14.8,8.4c6-2.9,8.7,2.3,8.7,2.3s1.3,0.9,7.2,6.4
		c1.2,1.1-2.7-2.8-6.8-9.9c-3.3-5.7-10.8-0.6-13.1-1.3c-1.7-0.4-3.8-1.6-4.8-3.1c-0.1-0.1-0.2-0.3-0.3-0.3
		C40.4,122.6,34.7,119,30.2,118.1z"/>
</g>
</svg>
