<?xml version="1.0" encoding="utf-8"?>
<!-- Generator: Adobe Illustrator 18.1.1, SVG Export Plug-In . SVG Version: 6.00 Build 0)  -->
<svg version="1.1" id="Layer_1" xmlns="http://www.w3.org/2000/svg" xmlns:xlink="http://www.w3.org/1999/xlink" x="0px" y="0px"
	 viewBox="0 0 200 200" enable-background="new 0 0 200 200" xml:space="preserve">
<g id="Throat">
	<path fill="#E8E8E8" d="M168.6,43.6C148.2,10.4,123.5-2.5,83.8,9.3C44.1,21.1,28,73.7,36.5,76.9c8.6,3.2,7.5,12.9,0,15
		c-7.5,2.1-12.9,25.2-12.9,25.2l16.1,0.5v8.6c0,0,40.1,0,55.3,0c22,0,19.9,31.1,19.9,31.1l0.5,37.6h33.8
		c-22.5-20.4-12.9-51.5,1.1-67.6S189,76.9,168.6,43.6z"/>
	<path fill="#E8E8E8" d="M94.6,141.4c-2.1-1.6-4.8-2.3-7.5-2.3H43c0,0,0,16.1,5.4,19.3c5.4,3.2,10.7-3.2,23.1,3.2s0,33.3,0,33.3H100
		c0,0,0-26.8,0-40.8C100,147.2,97.3,143.5,94.6,141.4z"/>
</g>
</svg>
