<?xml version="1.0" encoding="utf-8"?>
<!-- Generator: Adobe Illustrator 18.1.1, SVG Export Plug-In . SVG Version: 6.00 Build 0)  -->
<svg version="1.1" id="Atomic" xmlns="http://www.w3.org/2000/svg" xmlns:xlink="http://www.w3.org/1999/xlink" x="0px" y="0px"
	 viewBox="0 0 200 200" enable-background="new 0 0 200 200" xml:space="preserve">
<g>
	<path fill="#E8E8E8" d="M98.3,134.1c-3.7-17.2-1.9-33.7-0.9-40.2c0.3-1.7,1.7-3,3.5-3c1.6,0,3-1.3,3-3v-2.6c0-1.6-1.3-3-3-3H66.5
		H32.2c-1.6,0-3,1.3-3,3v2.6c0,1.6,1.3,3,3,3c1.7,0,3.2,1.3,3.5,3c1,6.6,2.8,23.1-0.9,40.2c-3.3,15.3-9.6,35.3-13.2,46.3
		c-1.8,5.5-2.7,11.2-2.7,17h47.7h47.7c0-5.8-0.9-11.5-2.7-17C107.9,169.4,101.7,149.4,98.3,134.1z M66.6,135.2
		c3.2,0,5.8,2.6,5.8,5.8s-2.6,5.8-5.8,5.8c-3.2,0-5.8-2.6-5.8-5.8S63.3,135.2,66.6,135.2z M52.7,121.2l0.7-0.6l8.4,11.1l-0.5,0.3
		c-3.4,1.9-5.2,5.7-4.6,9.5l-14-0.4C43.3,133.5,46.8,126.2,52.7,121.2z M77.6,162.1c-7.2,2.9-15.2,2.8-22.3-0.3l6.1-12.6
		c3.1,2.3,7.3,2.4,10.6,0.3l0.5-0.3l6,12.6L77.6,162.1z M77,141.5c0.7-3.8-1.2-7.6-4.6-9.5l-0.5-0.3l8.4-11.1l0.7,0.6
		c5.9,5.1,9.4,12.3,9.9,20L77,141.5z"/>
	<path fill="#E8E8E8" d="M122.7,53.4h-22.6c-2.2,0-4.1,1.8-4.1,4.1V79h7.8c2.8,0,5.1,2.3,5.1,5.1V89c0,2.8-2.3,5.1-5.1,5.1h-0.4
		c0,0-3.2,30.6,2,49.8c6.3,23.3,13.3,41.9,13.3,41.9h14.7l-6.7-128.5C126.7,55.1,124.9,53.4,122.7,53.4z"/>
	<path fill="#E8E8E8" d="M163.7,3.1c-8.7,0-16.1,5.2-18.8,12.4c-2.7-2.3-6.2-3.7-10.1-3.7c-8.4,0-15.2,6.6-15.2,14.8
		c0,0.8,0.1,1.5,0.2,2.2c-1.5-0.8-3.2-1.3-5-1.3c-5.9,0-10.6,4.7-10.6,10.6s4.7,10.6,10.6,10.6s10.6-4.7,10.6-10.6
		c2.6,2,5.9,3.2,9.4,3.2c5.8,0,10.9-3.2,13.4-7.8c3.7,4.2,9.2,6.9,15.5,6.9c11.1,0,20-8.3,20-18.6S174.8,3.1,163.7,3.1z"/>
</g>
</svg>
