<?xml version="1.0" encoding="utf-8"?>
<!-- Generator: Adobe Illustrator 18.1.1, SVG Export Plug-In . SVG Version: 6.00 Build 0)  -->
<svg version="1.1" id="Full-c" xmlns="http://www.w3.org/2000/svg" xmlns:xlink="http://www.w3.org/1999/xlink" x="0px" y="0px"
	 viewBox="0 0 200 200" enable-background="new 0 0 200 200" xml:space="preserve">
<g id="Balance" display="none">
	<path display="inline" fill="#212121" stroke="#212121" stroke-miterlimit="10" d="M100.3,172.9c0-0.1-0.1-0.2-0.2-0.2H84.3
		c-11.7,0-22.2,7.6-27,19.4c0,0.1,0,0.3,0.2,0.3H100c0.1,0,0.2-0.1,0.2-0.2L100.3,172.9L100.3,172.9z"/>
	<rect x="97.5" y="33.7" display="inline" fill="#212121" stroke="#212121" stroke-miterlimit="10" width="2.8" height="140.7"/>
	<rect x="46.2" y="19.3" display="inline" fill="#212121" stroke="#212121" stroke-miterlimit="10" width="44.5" height="7.3"/>
	<path display="inline" fill="none" stroke="#212121" stroke-width="6" stroke-miterlimit="10" d="M100.6,11.6
		c-5.3-0.4-9.9,5.2-9.9,11.3s4.3,11,9.6,11.3"/>
	<rect x="4" y="136.3" display="inline" fill="#212121" stroke="#212121" stroke-miterlimit="10" width="83.4" height="4.8"/>
	<ellipse display="inline" fill="#212121" stroke="#212121" stroke-miterlimit="10" cx="46.6" cy="22.9" rx="3.8" ry="4.3"/>
	<path display="inline" fill="#212121" stroke="#212121" stroke-miterlimit="10" d="M100.3,173.1c0-0.3,0.3-0.5,0.5-0.5h15.5
		c11.5,0,21.9,7.4,26.8,19.1c0.1,0.4-0.1,0.7-0.4,0.7h-41.8c-0.3,0-0.5-0.3-0.5-0.5L100.3,173.1z"/>
	<rect x="100.3" y="33.7" display="inline" fill="#212121" width="2.8" height="140.7"/>
	<rect x="109.8" y="19.3" display="inline" fill="#212121" stroke="#212121" stroke-miterlimit="10" width="44.5" height="7.3"/>
	<path display="inline" fill="none" stroke="#212121" stroke-width="6" stroke-miterlimit="10" d="M99.9,11.6
		c5.7,0,9.9,5.3,9.9,11.3s-4.3,11-9.6,11.3"/>
	<rect x="113.1" y="157.8" display="inline" fill="#212121" stroke="#212121" stroke-miterlimit="10" width="83.4" height="4.8"/>
	<ellipse display="inline" fill="#212121" cx="153.9" cy="22.9" rx="3.8" ry="4.3"/>
	<rect x="99.6" y="33.7" display="inline" fill="#212121" width="2" height="158.4"/>
	
		<line display="inline" fill="none" stroke="#212121" stroke-width="3" stroke-miterlimit="10" x1="48.6" y1="25.9" x2="78.8" y2="85"/>
	
		<line display="inline" fill="none" stroke="#212121" stroke-width="3" stroke-miterlimit="10" x1="45.5" y1="25.7" x2="12" y2="85"/>
	
		<line display="inline" fill="none" stroke="#212121" stroke-width="3" stroke-miterlimit="10" x1="151.9" y1="26" x2="121.7" y2="100"/>
	
		<line display="inline" fill="none" stroke="#212121" stroke-width="3" stroke-miterlimit="10" x1="155.1" y1="25.7" x2="185" y2="100"/>
</g>
<g id="Burger" display="none">
	<g id="_x32__2_" display="inline">
		<path fill="#212121" d="M59.8,89.8H31.1c-6.9,0-12.4,6.3-12.4,14.1l0,0h53.5l0,0C72.2,96.1,66.7,89.8,59.8,89.8z M24.3,99.2
			c-0.3,0-0.5-0.7-0.5-1.6c0-0.8,0.3-1.6,0.5-1.6s0.5,0.7,0.5,1.6C24.9,98.5,24.6,99.2,24.3,99.2z M27.9,102.3
			c-0.3,0-0.5-0.7-0.5-1.6c0-0.8,0.3-1.6,0.5-1.6s0.5,0.7,0.5,1.6C28.5,101.6,28.2,102.3,27.9,102.3z M30,95.5
			c-0.3,0-0.5-0.7-0.5-1.6c0-0.8,0.3-1.6,0.5-1.6s0.5,0.7,0.5,1.6S30.3,95.5,30,95.5z M32.8,99.8c-0.3,0-0.5-0.7-0.5-1.6
			c0-0.8,0.3-1.6,0.5-1.6s0.5,0.7,0.5,1.6C33.4,99.2,33.2,99.8,32.8,99.8z M36.5,96.1c-0.3,0-0.5-0.7-0.5-1.6c0-0.8,0.3-1.6,0.5-1.6
			s0.5,0.7,0.5,1.6C37,95.4,36.8,96.1,36.5,96.1z M40.5,102.3c-0.3,0-0.5-0.7-0.5-1.6c0-0.8,0.3-1.6,0.5-1.6s0.5,0.7,0.5,1.6
			C41,101.6,40.8,102.3,40.5,102.3z M44.4,95.1c-0.3,0-0.5-0.7-0.5-1.6c0-0.8,0.3-1.6,0.5-1.6s0.5,0.7,0.5,1.6
			C45,94.3,44.8,95.1,44.4,95.1z M47.5,101.8c-0.3,0-0.5-0.7-0.5-1.6c0-0.8,0.3-1.6,0.5-1.6s0.5,0.7,0.5,1.6
			C48.1,101.1,47.8,101.8,47.5,101.8z M50,98.1c-0.3,0-0.5-0.7-0.5-1.6c0-0.8,0.3-1.6,0.5-1.6s0.5,0.7,0.5,1.6S50.3,98.1,50,98.1z
			 M55.8,101.2c-0.3,0-0.5-0.7-0.5-1.6c0-0.8,0.3-1.6,0.5-1.6s0.5,0.7,0.5,1.6C56.3,100.5,56,101.2,55.8,101.2z M58,95.1
			c-0.3,0-0.5-0.7-0.5-1.6c0-0.8,0.3-1.6,0.5-1.6s0.5,0.7,0.5,1.6C58.5,94.3,58.3,95.1,58,95.1z M62.2,99.7c-0.3,0-0.5-0.7-0.5-1.6
			c0-0.8,0.3-1.6,0.5-1.6s0.5,0.7,0.5,1.6C62.8,98.9,62.5,99.7,62.2,99.7z M68.1,102.3c-0.3,0-0.6-0.7-0.6-1.6
			c0-0.8,0.3-1.6,0.6-1.6s0.6,0.7,0.6,1.6C68.6,101.6,68.3,102.3,68.1,102.3z"/>
		<path fill="#212121" d="M18.7,127.9c0,1.6,1.5,3,3.5,3h46.6c1.9,0,3.4-1.4,3.4-3v-6.8H18.7L18.7,127.9z"/>
		<path fill="#212121" d="M68.5,115.1c1.4,0,2.6-1.1,2.6-2.5v-0.4c0-1.3-1.2-2.5-2.6-2.5H22.4c-1.4,0-2.5,1.1-2.5,2.5v0.4
			c0,1.3,1.1,2.5,2.5,2.5H68.5z"/>
		<rect x="19.9" y="117.3" fill="#212121" width="51.2" height="1.7"/>
		<rect x="19.9" y="106" fill="#212121" width="51.2" height="1.7"/>
	</g>
</g>
<g id="Apple" display="none">
	<g id="_x33_" display="inline">
		<polygon fill="#212121" points="149.9,108.9 149.9,108.9 149.9,108.9 		"/>
		<path fill="#212121" d="M143.3,111.2c3.8,0.6,6.6-2.2,6.6-2.2s-2.7-2.3-5.6-4.2c-3.3-2.1-8.6-3.9-8.2-3.9
			c6.8,1.3,14.8,7.1,14.8,7.1c0.5-4.9-3.6-8.5-5.6-9c-2.1-0.5-14.9-1.2-14.9,0C130.3,100.3,139.4,110.6,143.3,111.2z"/>
		<path fill="#212121" d="M153.5,114.4c0.3,0.7,0.4,1.2,0.5,1.3l0.9-2.9c0.5-1.6,0.7-2.4,1.2-3.6c0.9-2.1,3.1-4.4,5.3-4.3
			c0,0-0.8-2-4.6-2.1c-2.9-0.1-4.1,3.3-4.4,4.9l0,0c-0.1,0.6-0.1,1.7-0.1,1.8c0,0.6,0.1,1.2,0.3,1.8
			C152.8,112.4,153.1,113.4,153.5,114.4z"/>
		<path fill="#212121" d="M154,115.8L154,115.8L154,115.8z"/>
		<path fill="#212121" d="M177.5,127.9c-0.1-3.8-2.2-8.7-4.8-11.6c-3.6-4.2-6.3-4.4-11.3-4.4c-1.1,0-2.2,0.3-3.1,0.6
			c-1.7,0.7-3,2.1-3.6,3.8l-0.6,2.6c-0.3-0.5-0.8-1.5-1-2.4c-0.6-2.6-3-4.6-5.7-4.6h-0.1c-5,0-7.6,0.3-11.3,4.4
			c-2.6,2.9-4.6,7.7-4.8,11.5c-0.2,4.7,0.7,9.9,3.1,13.9c3.6,5.9,7,10,12.9,11.5c1.1,0.3,6.3,0,6.9-0.9c0.1-0.1,0.1-0.1,0.1-0.1h0.1
			c0.9,0.8,5.8,1.3,6.9,1.1c5.9-1.5,9.3-5.6,12.9-11.5C176.8,137.8,177.7,132.6,177.5,127.9z M144,146.8c-0.9-2-7.6-7.6-6.9-17
			c0.6-8.4,8.9-12.1,8.9-12.1c-4.9,5.2-6,9.7-6.3,13.4C139.4,134.9,144.4,147.6,144,146.8z"/>
	</g>
</g>
<g id="Balance_1_">
	<path fill="#E8E8E8" stroke="#E8E8E8" stroke-miterlimit="10" d="M100.7,172.8c0-0.1-0.1-0.2-0.2-0.2H84.7
		c-11.7,0-22.2,7.6-27,19.4c0,0.1,0,0.3,0.2,0.3h42.5c0.1,0,0.2-0.1,0.2-0.2L100.7,172.8L100.7,172.8z"/>
	<rect x="97.8" y="33.6" fill="#E8E8E8" stroke="#E8E8E8" stroke-miterlimit="10" width="2.8" height="140.7"/>
	<rect x="46.5" y="19.2" fill="#E8E8E8" stroke="#E8E8E8" stroke-miterlimit="10" width="44.5" height="7.3"/>
	<path fill="none" stroke="#E8E8E8" stroke-width="6" stroke-miterlimit="10" d="M100.9,11.5c-5.3-0.4-9.9,5.2-9.9,11.3
		s4.3,11,9.6,11.3"/>
	<rect x="4.3" y="136.2" fill="#E8E8E8" stroke="#E8E8E8" stroke-miterlimit="10" width="83.4" height="4.8"/>
	<ellipse fill="#E8E8E8" stroke="#E8E8E8" stroke-miterlimit="10" cx="46.9" cy="22.8" rx="3.8" ry="4.3"/>
	<path fill="#E8E8E8" stroke="#E8E8E8" stroke-miterlimit="10" d="M100.7,173c0-0.3,0.3-0.5,0.5-0.5h15.5c11.5,0,21.9,7.4,26.8,19.1
		c0.1,0.4-0.1,0.7-0.4,0.7h-41.8c-0.3,0-0.5-0.3-0.5-0.5C100.7,191.8,100.7,173,100.7,173z"/>
	<rect x="100.7" y="33.6" fill="#E8E8E8" width="2.8" height="140.7"/>
	<rect x="110.1" y="19.2" fill="#E8E8E8" stroke="#E8E8E8" stroke-miterlimit="10" width="44.5" height="7.3"/>
	<path fill="none" stroke="#E8E8E8" stroke-width="6" stroke-miterlimit="10" d="M100.3,11.5c5.7,0,9.9,5.3,9.9,11.3
		s-4.3,11-9.6,11.3"/>
	<rect x="113.4" y="157.7" fill="#E8E8E8" stroke="#E8E8E8" stroke-miterlimit="10" width="83.4" height="4.8"/>
	<ellipse fill="#E8E8E8" cx="154.3" cy="22.8" rx="3.8" ry="4.3"/>
	<rect x="99.9" y="33.6" fill="#E8E8E8" width="2" height="158.4"/>
	<line fill="none" stroke="#E8E8E8" stroke-width="3" stroke-miterlimit="10" x1="48.9" y1="25.8" x2="79.2" y2="84.9"/>
	<line fill="none" stroke="#E8E8E8" stroke-width="3" stroke-miterlimit="10" x1="45.8" y1="25.6" x2="12.3" y2="84.9"/>
	<line fill="none" stroke="#E8E8E8" stroke-width="3" stroke-miterlimit="10" x1="152.3" y1="25.9" x2="122" y2="99.9"/>
	<line fill="none" stroke="#E8E8E8" stroke-width="3" stroke-miterlimit="10" x1="155.5" y1="25.6" x2="185.4" y2="99.9"/>
</g>
<g id="Burger_1_">
	<g id="_x32__1_">
		<path fill="#E8E8E8" d="M60.1,89.7H31.4C24.5,89.7,19,96,19,103.8l0,0h53.5l0,0C72.5,96,67,89.7,60.1,89.7z M24.6,99.1
			c-0.3,0-0.5-0.7-0.5-1.6c0-0.8,0.3-1.6,0.5-1.6s0.5,0.7,0.5,1.6C25.2,98.4,24.9,99.1,24.6,99.1z M28.2,102.2
			c-0.3,0-0.5-0.7-0.5-1.6c0-0.8,0.3-1.6,0.5-1.6s0.5,0.7,0.5,1.6C28.8,101.5,28.5,102.2,28.2,102.2z M30.3,95.4
			c-0.3,0-0.5-0.7-0.5-1.6c0-0.8,0.3-1.6,0.5-1.6s0.5,0.7,0.5,1.6C30.8,94.7,30.6,95.4,30.3,95.4z M33.1,99.7
			c-0.3,0-0.5-0.7-0.5-1.6c0-0.8,0.3-1.6,0.5-1.6s0.5,0.7,0.5,1.6C33.8,99.1,33.5,99.7,33.1,99.7z M36.8,96c-0.3,0-0.5-0.7-0.5-1.6
			c0-0.8,0.3-1.6,0.5-1.6s0.5,0.7,0.5,1.6C37.3,95.3,37.1,96,36.8,96z M40.8,102.2c-0.3,0-0.5-0.7-0.5-1.6c0-0.8,0.3-1.6,0.5-1.6
			s0.5,0.7,0.5,1.6S41.1,102.2,40.8,102.2z M44.8,95c-0.3,0-0.5-0.7-0.5-1.6c0-0.8,0.3-1.6,0.5-1.6s0.5,0.7,0.5,1.6
			C45.3,94.2,45.1,95,44.8,95z M47.8,101.7c-0.3,0-0.5-0.7-0.5-1.6c0-0.8,0.3-1.6,0.5-1.6s0.5,0.7,0.5,1.6
			C48.4,101,48.1,101.7,47.8,101.7z M50.3,98c-0.3,0-0.5-0.7-0.5-1.6c0-0.8,0.3-1.6,0.5-1.6s0.5,0.7,0.5,1.6
			C50.8,97.3,50.6,98,50.3,98z M56.1,101.1c-0.3,0-0.5-0.7-0.5-1.6c0-0.8,0.3-1.6,0.5-1.6s0.5,0.7,0.5,1.6
			C56.6,100.4,56.3,101.1,56.1,101.1z M58.3,95c-0.3,0-0.5-0.7-0.5-1.6c0-0.8,0.3-1.6,0.5-1.6s0.5,0.7,0.5,1.6
			C58.8,94.2,58.6,95,58.3,95z M62.5,99.6c-0.3,0-0.5-0.7-0.5-1.6c0-0.8,0.3-1.6,0.5-1.6S63,97.1,63,98
			C63.1,98.8,62.8,99.6,62.5,99.6z M68.4,102.2c-0.3,0-0.6-0.7-0.6-1.6c0-0.8,0.3-1.6,0.6-1.6s0.6,0.7,0.6,1.6
			C68.9,101.5,68.7,102.2,68.4,102.2z"/>
		<path fill="#E8E8E8" d="M19,127.8c0,1.6,1.5,3,3.5,3h46.6c1.9,0,3.4-1.4,3.4-3V121H19C19,121.1,19,127.8,19,127.8z"/>
		<path fill="#E8E8E8" d="M68.8,115c1.4,0,2.6-1.1,2.6-2.5v-0.4c0-1.3-1.2-2.5-2.6-2.5H22.7c-1.4,0-2.5,1.1-2.5,2.5v0.4
			c0,1.3,1.1,2.5,2.5,2.5H68.8z"/>
		<rect x="20.3" y="117.2" fill="#E8E8E8" width="51.2" height="1.7"/>
		<rect x="20.3" y="105.9" fill="#E8E8E8" width="51.2" height="1.7"/>
	</g>
</g>
<g id="Apple_1_">
	<g id="_x33__1_">
		<path fill="#E8E8E8" d="M150.3,108.8L150.3,108.8L150.3,108.8z"/>
		<path fill="#E8E8E8" d="M143.6,111.1c3.8,0.6,6.6-2.2,6.6-2.2s-2.7-2.3-5.6-4.2c-3.3-2.1-8.6-3.9-8.2-3.9
			c6.8,1.3,14.8,7.1,14.8,7.1c0.5-4.9-3.6-8.5-5.6-9c-2.1-0.5-14.9-1.2-14.9,0C130.6,100.2,139.8,110.5,143.6,111.1z"/>
		<path fill="#E8E8E8" d="M153.9,114.3c0.3,0.7,0.4,1.2,0.5,1.3l0.9-2.9c0.5-1.6,0.7-2.4,1.2-3.6c0.9-2.1,3.1-4.4,5.3-4.3
			c0,0-0.8-2-4.6-2.1c-2.9-0.1-4.1,3.3-4.4,4.9l0,0c-0.1,0.6-0.1,1.7-0.1,1.8c0,0.6,0.1,1.2,0.3,1.8
			C153.1,112.3,153.5,113.3,153.9,114.3z"/>
		<path fill="#E8E8E8" d="M154.4,115.7L154.4,115.7L154.4,115.7z"/>
		<path fill="#E8E8E8" d="M177.9,127.8c-0.1-3.8-2.2-8.7-4.8-11.6c-3.6-4.2-6.3-4.4-11.3-4.4c-1.1,0-2.2,0.3-3.1,0.6
			c-1.7,0.7-3,2.1-3.6,3.8l-0.6,2.6c-0.3-0.5-0.8-1.5-1-2.4c-0.6-2.6-3-4.6-5.7-4.6h-0.1c-5,0-7.6,0.3-11.3,4.4
			c-2.6,2.9-4.6,7.7-4.8,11.5c-0.2,4.7,0.7,9.9,3.1,13.9c3.6,5.9,7,10,12.9,11.5c1.1,0.3,6.3,0,6.9-0.9c0.1-0.1,0.1-0.1,0.1-0.1h0.1
			c0.9,0.8,5.8,1.3,6.9,1.1c5.9-1.5,9.3-5.6,12.9-11.5C177.1,137.7,178,132.5,177.9,127.8z M144.4,146.7c-0.9-2-7.6-7.6-6.9-17
			c0.6-8.4,8.9-12.1,8.9-12.1c-4.9,5.2-6,9.7-6.3,13.4C139.8,134.8,144.8,147.5,144.4,146.7z"/>
	</g>
</g>
</svg>
