<?xml version="1.0" encoding="utf-8"?>
<!-- Generator: Adobe Illustrator 18.1.1, SVG Export Plug-In . SVG Version: 6.00 Build 0)  -->
<svg version="1.1" id="F" xmlns="http://www.w3.org/2000/svg" xmlns:xlink="http://www.w3.org/1999/xlink" x="0px" y="0px"
	 viewBox="0 0 200 260" enable-background="new 0 0 200 260" xml:space="preserve">
<path id="Face" fill="#E8E8E8" d="M193.6,209.9c0-9.1-26.7-9.4-34.8-10.3c-2.3-0.3-4.6-0.9-6.7-1.9l-9.4-4.8c-2-1-3.3-3.1-3.2-5.3
	l0.2-22.5c0,0-15.3,10.6-19.7,13.9l22.8-21.3c0,0,21-26.2,18.2-89.8C158.4,9.1,102.7,8.9,99.9,9c-2.7-0.2-58.5,0-61.1,58.8
	c-2.8,63.5,18.2,89.8,18.2,89.8L80,178.9c-4.4-3.3-19.7-13.9-19.7-13.9l0.2,22.5c0,2.2-1.2,4.3-3.2,5.3l-9.4,4.8
	c-2.1,1-4.4,1.6-6.7,1.9c-8.1,1-34.7,1.3-34.7,10.3c0,4.8,36.7,41,93.5,41.1v0c0,0,0.1,0,0.1,0c0,0,0.1,0,0.1,0v0
	C156.8,250.9,193.6,216.3,193.6,209.9z"/>
</svg>
