<?xml version="1.0" encoding="utf-8"?>
<!-- Generator: Adobe Illustrator 18.1.1, SVG Export Plug-In . SVG Version: 6.00 Build 0)  -->
<svg version="1.1" id="Full-c" xmlns="http://www.w3.org/2000/svg" xmlns:xlink="http://www.w3.org/1999/xlink" x="0px" y="0px"
	 viewBox="0 0 200 200" enable-background="new 0 0 200 200" xml:space="preserve">
<g id="Line">
	<polyline fill="none" stroke="#E8E8E8" stroke-width="6" stroke-miterlimit="10" points="18.3,181.8 92.5,107.5 183.8,16.3 	"/>
</g>
<g id="Soap_1_">
	<g id="Soap">
		<path fill="#E8E8E8" d="M152.7,121.3l-0.6-3.4c0-5.2-4.2-9.4-9.4-9.4l-4.4,0.6c-13.6,1.9-27.2,2.9-40.8,3.1l-11.1,11.1
			c18,0.3,36.2-0.8,54-3.4l0,0l0.1,0.4c3.3,17.7,3.3,35.8,0,53.6l0.9,0.4h-1c-31.7-4.6-63.8-4.6-95.5-0.1l-0.5,0.1l-0.2-0.8
			c-0.4-2.4-0.8-4.6-1.1-7l-9.9,9.9c0.5,4.8,4.5,8.4,9.3,8.4l4.2-0.6c30.5-4.3,61.3-4.3,91.7,0l4.1,0.6c5.2,0,9.4-4.2,9.4-9.4
			l0.6-3.4C155.6,155.2,155.6,138,152.7,121.3z"/>
		
			<circle id="Bubble_x5F_1_1_" fill="none" stroke="#E8E8E8" stroke-width="6" stroke-miterlimit="10" cx="135.5" cy="92.3" r="9.4"/>
		<circle id="Bubble_x5F_2" fill="none" stroke="#E8E8E8" stroke-width="4" stroke-miterlimit="10" cx="159.3" cy="83.2" r="7.8"/>
		<circle id="Bubble_x5F_3" fill="none" stroke="#E8E8E8" stroke-width="3" stroke-miterlimit="10" cx="150.9" cy="66.1" r="6.1"/>
		<circle id="Blink_x5F_1" fill="#E8E8E8" cx="138.5" cy="90.2" r="2"/>
		<circle id="Blink_x5F_2" fill="#E8E8E8" cx="162.3" cy="80.8" r="1.6"/>
		<circle id="Blink_x5F_3" fill="#E8E8E8" cx="152.6" cy="64" r="1.3"/>
	</g>
</g>
<g id="Sticks_1_">
	<g id="Sticks">
		<path fill="#E8E8E8" d="M116.2,39.9l-1.2-4.2c-0.4,0.5-0.9,1-1.6,1.1s-1.3,0.2-1.9-0.1l1.2,4.2l8.2,29.7l2.9-2.9L116.2,39.9z"/>
		<path fill="#E8E8E8" d="M110.3,32.6c0.7,0.3,1.3,0.3,1.9,0.1s1.2-0.5,1.6-1.1c1.7-2.1,2.1-6.8,0.7-11.6c-1.8-6.2-5.7-10.5-8.7-9.6
			s-4,6.6-2.3,12.8C104.9,28,107.7,31.7,110.3,32.6z"/>
		<path fill="#E8E8E8" d="M138.1,38.6l0.3-4.3c-0.6,0.3-1.3,0.5-1.9,0.5s-1.3-0.3-1.8-0.8l-0.3,4.3L133,58.5l3.9-3.9L138.1,38.6z"/>
		<path fill="#E8E8E8" d="M135.1,29.7c0.6,0.5,1.1,0.7,1.8,0.8c0.6,0,1.3-0.1,1.9-0.5c2.4-1.4,4.2-5.6,4.6-10.8
			c0.4-6.4-1.8-11.8-4.9-12s-6,4.9-6.4,11.3C131.6,23.5,132.9,28,135.1,29.7z"/>
	</g>
</g>
<g id="Tooth_x5F_tools_1_">
	<g id="Tooth_x5F_tools">
		<polygon fill="#E8E8E8" points="42,59.1 34.4,44.3 24.6,47.1 26.1,63.7 		"/>
		<path fill="#E8E8E8" d="M31.7,82.8L48.3,78L65,126.2l4.1-4.1L49.8,66.5c-1.2-3.5-5-5.4-8.5-4.4l-12.5,3.6c-3.5,1-5.6,4.7-4.9,8.2
			l17.5,75.7l4.5-4.5L31.7,82.8z"/>
		<path fill="#E8E8E8" d="M93,90.4C89,78.9,83.7,68,76.9,57.8l-2.3-3.5l1.3-0.5c1.4-0.5,2.2-2,1.7-3.5l-8.1-23.1
			c-0.5-1.4-2.1-2.1-3.4-1.7L62,27c-1.4,0.5-2.2,2-1.7,3.5l8.7,25.2l0.2,0.5l16.9,48.8l8.7-8.7L93,90.4z"/>
		
			<rect x="73.8" y="22" transform="matrix(-0.3279 -0.9447 0.9447 -0.3279 75.0014 105.858)" fill="#E8E8E8" width="2.7" height="8.4"/>
		
			<rect x="72.7" y="30" transform="matrix(0.9447 -0.3278 0.3278 0.9447 -6.0388 26.9503)" fill="#E8E8E8" width="8.4" height="2.7"/>
		
			<rect x="74.7" y="35.2" transform="matrix(0.9447 -0.3278 0.3278 0.9447 -7.611 27.8751)" fill="#E8E8E8" width="8.4" height="2.7"/>
		
			<rect x="76.4" y="40.3" transform="matrix(0.9447 -0.3278 0.3278 0.9447 -9.1976 28.7379)" fill="#E8E8E8" width="8.4" height="2.7"/>
		
			<rect x="78.3" y="45.4" transform="matrix(0.9447 -0.3278 0.3278 0.9447 -10.7759 29.6153)" fill="#E8E8E8" width="8.4" height="2.7"/>
	</g>
</g>
</svg>
