<?xml version="1.0" encoding="utf-8"?>
<!-- Generator: Adobe Illustrator 18.1.1, SVG Export Plug-In . SVG Version: 6.00 Build 0)  -->
<svg version="1.1" id="Layer_1" xmlns="http://www.w3.org/2000/svg" xmlns:xlink="http://www.w3.org/1999/xlink" x="0px" y="0px"
	 viewBox="0 0 200 200" enable-background="new 0 0 200 200" xml:space="preserve">
<g id="Kidney">
	<path fill="#E8E8E8" d="M62.3,98.6c2.9-13.5,18.7-6.3,22.1-34.2c0,0,2.9-30-36.5-29.8C12.6,34.8,4.5,76.4,5,87.5
		c0.5,11.1,6.3,61.1,35.1,60.6c11.5-0.2,18.6-4.7,22.9-10c5.8-7.2,6.5-17.1,2.4-25.4C63.3,108.3,61.4,102.8,62.3,98.6z"/>
	<path fill="#E8E8E8" d="M152.2,34.6c-39.4-0.2-36.5,29.8-36.5,29.8c3.4,27.9,19.2,20.7,22.1,34.2c0.9,4.2-1.1,9.6-3.2,14
		c-4.1,8.3-3.4,18.3,2.4,25.4c4.3,5.3,11.4,9.8,22.9,10c28.9,0.5,34.6-49.5,35.1-60.6C195.5,76.4,187.4,34.8,152.2,34.6z"/>
	<path fill="#E8E8E8" d="M106.5,93c-2.7,2.1-5.2,5.4-6.6,8.9c-1.4-3.5-4-6.6-6.9-8.9l-5.7-4.5l-14.5,13.9l16.3,16.3v46.6h9.4h2.4
		h9.4v-46.6l16.3-16.3l-14.5-13.9L106.5,93z"/>
</g>
</svg>
