<?xml version="1.0" encoding="utf-8"?>
<!-- Generator: Adobe Illustrator 18.1.1, SVG Export Plug-In . SVG Version: 6.00 Build 0)  -->
<svg version="1.1" id="Layer_1" xmlns="http://www.w3.org/2000/svg" xmlns:xlink="http://www.w3.org/1999/xlink" x="0px" y="0px"
	 viewBox="0 0 200 200" enable-background="new 0 0 200 200" xml:space="preserve">
<g id="Lungs">
	<path fill="#E8E8E8" d="M56.8,102.3L49.7,90c-1.2-2.1-0.8-4.7,1-6.3l12.3-11.3c6.6-6.1,5.6-16.9-2-21.7c-0.6-0.4-1.2-0.7-1.9-1.1
		c-4-2.1-8.8-1.9-12.6,0.5C31.9,59.4-3.5,90,6.9,163.1c2.2,15.8,74.1-15.9,74.1-15.9V93.8l-16.1,10.4
		C62.1,106,58.4,105.2,56.8,102.3z"/>
	<path fill="#E8E8E8" d="M63.5,80.9l7.7,13c0,0,21.7-19.6,28.8-20.1c7.1,0.4,28.8,20.1,28.8,20.1l7.7-13c-8.8-5-13.6-10.2-18.4-16.5
		c-6.9-9.1-10.4-20.4-10.4-31.8v-0.1h-7.4h-0.5h-7.4v0.1c0,11.4-3.5,22.7-10.4,31.8C77.1,70.7,72.3,75.9,63.5,80.9z"/>
	<path fill="#E8E8E8" d="M153.6,50.1c-3.8-2.4-8.6-2.6-12.6-0.5c-0.7,0.4-1.3,0.7-1.9,1.1c-7.7,4.8-8.7,15.5-2,21.7l12.3,11.3
		c1.8,1.6,2.2,4.3,1,6.3l-7.1,12.3c-1.6,2.8-5.3,3.7-8.1,2l-16.1-10.4v53.4c0,0,71.9,31.7,74.1,15.9C203.5,90,168.1,59.4,153.6,50.1
		z"/>
</g>
</svg>
