<?xml version="1.0" encoding="utf-8"?>
<!-- Generator: Adobe Illustrator 18.1.1, SVG Export Plug-In . SVG Version: 6.00 Build 0)  -->
<svg version="1.1" id="Layer_1" xmlns="http://www.w3.org/2000/svg" xmlns:xlink="http://www.w3.org/1999/xlink" x="0px" y="0px"
	 viewBox="0 0 200 200" enable-background="new 0 0 200 200" xml:space="preserve">
<g id="Nervous_x5F_system">
	<path fill="#E8E8E8" d="M178.6,109.7c-23.6-18.4-52.8-19-52.8-19s-4.6-3.7,0-6.9c4.6-3.2,14.8-18.9,13.8-40.6
		C138.8,22.2,126,7.4,100,6.5V6.3c-0.6,0-1.2,0-1.8,0.1c-0.2,0-0.4,0-0.6,0v0C71.7,7.3,61.2,22.2,60.4,43.2
		c-0.9,21.7,9.2,37.3,13.8,40.6c4.6,3.2,0,6.9,0,6.9s-29.2,0.6-52.8,19C0.6,125.8,5.5,170.9,5.5,170.9s10.4,11.5,10.6,7.4
		c2.3-43.3,42.5-51.4,42.5-51.4s19.2-1.4,24.3-3.5c10.1-4.1,8.3-15.2,8.3-15.2l1.8-23.1l3.3-20.9l-6.5-4.8
		C81.6,53.3,80.9,41,88.4,34l0.6-0.6c6.2-5.8,15.8-6,22.3-0.4l0,0c7.9,6.9,7.6,19.2-0.7,25.6l-7,5.5l3.3,21l1.8,23.1
		c0,0-1.8,11.1,8.3,15.2c5.1,2.1,24.3,3.5,24.3,3.5s40.2,8,42.5,51.4c0.2,4.1,10.6-7.4,10.6-7.4S199.4,125.8,178.6,109.7z"/>
	<path fill="#E8E8E8" d="M52.5,139.7c-22.6,11.5-26.9,30.8-27.6,39c-0.2,2.2,1.1,4.2,3.2,4.9c9.9,3.4,38.6,12.6,39.1,4.7
		c2-30.7,25.8-35.3,25.8-35.3v-23.4C92.9,129.6,76,127.7,52.5,139.7z"/>
	<path fill="#E8E8E8" d="M146.6,139.7c-23.5-12-40.4-10.1-40.4-10.1v10.1c0,0,31.3,18.4,28,48.3c-0.9,7.8,27.1-1,37-4.4
		c2.1-0.7,3.4-2.7,3.2-4.9C173.4,170.6,169.2,151.2,146.6,139.7z"/>
	<path fill="#E8E8E8" d="M106.1,150.5v43c0,0,18.6,1.3,20.2-3.7C127.8,184.9,119.4,156,106.1,150.5z"/>
	<path fill="#E8E8E8" d="M78,190.8c1.1,3.7,15,2.7,15,2.7v-32C83.1,165.7,76.8,187.1,78,190.8z"/>
</g>
</svg>
