<?xml version="1.0" encoding="utf-8"?>
<!-- Generator: Adobe Illustrator 18.1.1, SVG Export Plug-In . SVG Version: 6.00 Build 0)  -->
<svg version="1.1" id="Full-c" xmlns="http://www.w3.org/2000/svg" xmlns:xlink="http://www.w3.org/1999/xlink" x="0px" y="0px"
	 viewBox="0 0 200 200" enable-background="new 0 0 200 200" xml:space="preserve">
<g id="Cardio">
	<g>
		<path fill="#E8E8E8" d="M163.5,26.6c-4.4,0-8.4,2-11.1,5.1c-2.7-3.1-6.7-5-11.1-5c-8.2,0-14.8,6.7-14.8,14.8
			c0,3.5,1.3,6.7,3.3,9.3l0,0l1.6,1.8h8.4l4.4-9.5l6.4,14l6.1-17.6l3.2,13.6h13.1l2.1-2.3c2.1-2.5,3.3-5.8,3.3-9.3
			C178.4,33.3,171.7,26.6,163.5,26.6z"/>
		<polygon fill="#E8E8E8" points="156.3,48.8 150.7,64.2 144,49.6 141.4,54.6 133,54.6 152.1,78 171.5,55 157.9,55 		"/>
	</g>
</g>
<g id="Layer_4">
	<path fill="#E8E8E8" d="M62.8,65.3H58c-0.6,0-1-0.4-1-1.1V32.7c0-0.6,0.5-1,1-1h4.8c0.6,0,1,0.5,1,1v31.5
		C63.8,64.8,63.3,65.3,62.8,65.3z"/>
	<path fill="#E8E8E8" d="M39.9,65.3h-4.8c-0.6,0-1-0.4-1-1.1V32.7c0-0.6,0.5-1,1-1h4.8c0.6,0,1,0.5,1,1v31.5
		C41,64.8,40.5,65.3,39.9,65.3z"/>
	<rect x="39.6" y="44.5" fill="#E8E8E8" stroke="#E8E8E8" stroke-miterlimit="10" width="18.5" height="7.8"/>
	<path fill="#E8E8E8" d="M30.1,60.1h-4.4c-0.7,0-1.3-0.5-1.3-1.3V37.8c0-0.7,0.5-1.3,1.3-1.3h4.4c0.7,0,1.3,0.5,1.3,1.3v21.1
		C31.4,59.5,30.8,60.1,30.1,60.1z"/>
	<path fill="#E8E8E8" d="M71.6,60.1h-4.4c-0.7,0-1.3-0.5-1.3-1.3V37.8c0-0.7,0.6-1.3,1.3-1.3h4.4c0.7,0,1.3,0.5,1.3,1.3v21.1
		C72.8,59.5,72.3,60.1,71.6,60.1z"/>
	<path fill="#E8E8E8" d="M22.7,52.3h-1.5c-0.9,0-1.6-0.8-1.6-1.7v-4.5c0-0.9,0.8-1.7,1.6-1.7h1.5V52.3z"/>
	<path fill="#E8E8E8" d="M76.3,52.3h-1.5v-7.8h1.5c0.9,0,1.7,0.8,1.7,1.7v4.5C77.9,51.6,77.2,52.3,76.3,52.3z"/>
</g>
<g id="Chess">
	<g>
		<polygon fill="#E8E8E8" points="64.1,141.1 70.4,135.8 70.4,127.2 67.7,124.4 60.8,124.4 60.8,131.7 54.4,131.7 54.4,124.4 
			48.8,124.4 43.1,124.4 43.1,131.7 36.7,131.7 36.7,124.4 29.8,124.4 27,127.2 27,135.8 33.4,141.1 		"/>
		<polygon fill="#E8E8E8" points="28.1,167.4 69.3,167.4 63.5,161.4 34,161.4 		"/>
		<polygon fill="#E8E8E8" points="25.9,170.4 25.9,175.8 28.1,178.1 48.8,178.1 69.4,178.1 71.7,175.8 71.7,170.4 		"/>
		<rect x="34.9" y="143.2" fill="#E8E8E8" width="27.6" height="15.8"/>
	</g>
</g>
<g id="Ball">
	<g>
		<path fill="#E8E8E8" d="M132,174.4c5.2,4.6,11.9,7.4,19.4,7.6v-29.9H142C141.8,158.9,139.1,166.5,132,174.4z"/>
		<path fill="#E8E8E8" d="M153.4,152.3v29.9c7.4-0.3,14.1-3.1,19.4-7.7c-7.1-7.9-9.8-15.4-10-22.1L153.4,152.3L153.4,152.3z"/>
		<path fill="#E8E8E8" d="M141.9,150.3h9.4v-29.8c-7.4,0.2-14.3,3.1-19.4,7.7C134.8,131.1,141.5,139.4,141.9,150.3z"/>
		<path fill="#E8E8E8" d="M172.6,128.1c-5.2-4.6-11.9-7.4-19.3-7.7v29.8h9.4C163.1,139.4,169.8,131.2,172.6,128.1z"/>
		<path fill="#E8E8E8" d="M139.9,150.3c-0.3-8.2-3.8-15.6-9.3-21c-5.4,5.4-8.9,12.8-9.2,21h9.2H139.9z"/>
		<path fill="#E8E8E8" d="M130.6,152.2L130.6,152.2l-9.2,0.1c0.3,8.2,3.7,15.6,9.2,21v-0.1c5.6-5.4,9.1-12.8,9.4-21H130.6z"/>
		<path fill="#E8E8E8" d="M164.2,152.3c0.3,8.2,3.9,15.6,9.8,20.9c5.4-5.4,8.9-12.8,9.1-20.9H174H164.2z"/>
		<path fill="#E8E8E8" d="M174,150.3h9.1c-0.3-8.2-3.7-15.6-9.1-20.9c-5.6,5.4-9.1,12.8-9.4,20.9H174z"/>
	</g>
</g>
<g id="Circles">
	<g>
		<path fill="none" stroke="#E8E8E8" stroke-width="8" stroke-miterlimit="10" d="M137.3,109.8c0.8-3.2,1.3-6.4,1.3-9.8
			s-0.4-6.7-1.3-9.8c-12.9-4.3-23.1-14.6-27.4-27.5c-3.2-0.8-6.4-1.3-9.8-1.3s-6.7,0.5-9.8,1.3c-4.3,12.9-14.6,23.1-27.5,27.5
			c-0.8,3.2-1.3,6.4-1.3,9.8s0.5,6.7,1.3,9.8c12.9,4.3,23.1,14.6,27.5,27.4c3.2,0.8,6.4,1.3,9.8,1.3s6.7-0.4,9.8-1.3
			C114.2,124.3,124.3,114.2,137.3,109.8z"/>
		<path fill="none" stroke="#E8E8E8" stroke-width="8" stroke-miterlimit="10" d="M90.2,62.8c1.5-4.4,2.3-9.1,2.3-14
			C92.5,24.6,72.9,5,48.8,5S5,24.6,5,48.8s19.6,43.8,43.8,43.8c4.9,0,9.6-0.8,14-2.3"/>
		<path fill="none" stroke="#E8E8E8" stroke-width="8" stroke-miterlimit="10" d="M62.8,109.8c-4.4-1.5-9.1-2.3-14-2.3
			C24.6,107.5,5,127.1,5,151.3S24.6,195,48.8,195s43.8-19.6,43.8-43.8c0-4.9-0.8-9.6-2.3-14"/>
		<path fill="none" stroke="#E8E8E8" stroke-width="8" stroke-miterlimit="10" d="M90.2,137.3c-4.3-12.9-14.6-23.1-27.5-27.4"/>
		<path fill="none" stroke="#E8E8E8" stroke-width="8" stroke-miterlimit="10" d="M137.3,90.2c4.4,1.5,9.1,2.3,14,2.3
			c24.1,0,43.8-19.6,43.8-43.8S175.4,5,151.3,5s-43.8,19.6-43.8,43.8c0,4.9,0.8,9.6,2.3,14"/>
		<path fill="none" stroke="#E8E8E8" stroke-width="8" stroke-miterlimit="10" d="M109.8,62.8c4.3,12.9,14.6,23.1,27.4,27.4"/>
		<path fill="none" stroke="#E8E8E8" stroke-width="8" stroke-miterlimit="10" d="M109.8,137.3c-1.5,4.4-2.3,9.1-2.3,14
			c0,24.1,19.6,43.8,43.8,43.8s43.8-19.6,43.8-43.8s-19.6-43.8-43.8-43.8c-4.9,0-9.6,0.8-14,2.3"/>
		<path fill="none" stroke="#E8E8E8" stroke-width="8" stroke-miterlimit="10" d="M137.3,109.8c-12.9,4.3-23.1,14.6-27.4,27.4"/>
	</g>
</g>
</svg>
