<?xml version="1.0" encoding="utf-8"?>
<!-- Generator: Adobe Illustrator 18.1.1, SVG Export Plug-In . SVG Version: 6.00 Build 0)  -->
<svg version="1.1" id="Layer_1" xmlns="http://www.w3.org/2000/svg" xmlns:xlink="http://www.w3.org/1999/xlink" x="0px" y="0px"
	 viewBox="0 0 200 200" enable-background="new 0 0 200 200" xml:space="preserve">
<path id="Stomach" fill="#E8E8E8" d="M102.4,13.3h15.7c0,0,0,32.8,7.9,32.8s31.5-12.5,49.8,7.2s28.9,41.3,6.6,79.4
	s-56.4,56.4-80,53.8s-38-13.8-50.5-32.1s-14.4-14.8-24.6-11.8c-4.2,1.2-9.5,10.5-8.9,21C19.1,174,6,168.1,6,168.1
	s-8.5-35.4,24.9-39.3c8.8-1,18.4,6,23.3,9.5c1.5,1.1,6.4,0.9,10.1,0.6c2.8-0.3,5.4-1.6,7.3-3.8c2.8-3.3,7.7-8.3,12.8-10
	c7.9-2.6,13.1-7.8,13.4-9.5c1.3-7.8,0.9-15.8,11.5-22.3c11.1-6.9,8.5-21,7.2-26.9C115.2,60.5,95.8,27.7,102.4,13.3z"/>
</svg>
