<?xml version="1.0" encoding="utf-8"?>
<!-- Generator: Adobe Illustrator 18.1.1, SVG Export Plug-In . SVG Version: 6.00 Build 0)  -->
<svg version="1.1" id="Full-c" xmlns="http://www.w3.org/2000/svg" xmlns:xlink="http://www.w3.org/1999/xlink" x="0px" y="0px"
	 viewBox="0 0 200 200" enable-background="new 0 0 200 200" xml:space="preserve">
<path id="Tree-b" fill="#E8E8E8" d="M143.9,79.8c0-9.3-4.4-17.7-11.3-22.9c0.5-2.2,0.8-4.3,0.8-6.7c0-16.1-12.9-29.2-28.8-29.2
	c-5.7,0-10.9,1.6-15.4,4.5c-4.2-5.9-10.7-9.6-18.2-9.6c-4.8,0-9.4,1.6-13.1,4.4c-1.7-0.4-3.5-0.6-5.3-0.6
	c-13.5,0-24.4,10.9-24.4,24.4c0,0,0,0,0,0.1C13.9,45,2.5,56.8,2.5,71.4c0,8.7,4.1,16.4,10.4,21.4c-2.1,3.6-3.4,7.8-3.4,12.3
	c0,13.4,10.9,24.4,24.4,24.4c5.1,0,9.8-1.6,13.8-4.3c2.5,4.1,9.5,15.8,12.5,23.9c7.4,19.6,0,32.4,0,32.4h7.9h0.5h7.8
	c0,0-7.3-12.9,0-32.4c2.3-6.1,6.9-14.4,10.1-19.8c4.3,3.7,9.9,5.9,16.1,5.9c13.8,0,25-11.3,25-25.3c0-1.4-0.2-2.8-0.3-4.2
	C137.1,101.3,143.9,91.3,143.9,79.8z M68.3,137.1c-7.5-3.4-12.3-15.8-13.5-19.4c0.4-0.7,0.8-1.3,1.1-2.1c3.7,2.2,8,3.5,12.6,3.5
	c3.6,0,6.9-0.8,10.1-2.2c0.4,1.6,1.1,3.1,1.8,4.5C78.2,126.7,74.1,134.4,68.3,137.1z"/>
<path id="Tree-s" fill="#E8E8E8" d="M198.1,132.1c0-4.6-2.1-8.6-5.5-11.1c0.3-1.1,0.4-2.1,0.4-3.2c0-7.8-6.3-14.2-14-14.2
	c-2.8,0-5.4,0.8-7.5,2.2c-2-2.8-5.2-4.7-8.8-4.7c-2.4,0-4.6,0.8-6.4,2.2c-0.9-0.2-1.7-0.3-2.6-0.3c-6.6,0-11.9,5.3-11.9,11.8
	c0,0,0,0,0,0.1c-6.9,0.4-12.5,6.2-12.5,13.2c0,4.2,2,7.9,5.1,10.4c-1.1,1.8-1.6,3.8-1.6,5.9c0,6.6,5.3,11.9,11.9,11.9
	c2.5,0,4.8-0.8,6.7-2.1c1.3,2,4.6,7.6,6.1,11.6c3.6,9.5,0,15.8,0,15.8h3.8h0.3h3.8c0,0-3.6-6.3,0-15.8c1.1-3,3.4-7,4.9-9.6
	c2.1,1.8,4.9,2.9,7.8,2.9c6.7,0,12.1-5.5,12.1-12.3c0-0.7-0.1-1.4-0.2-2C194.7,142.6,198.1,137.7,198.1,132.1z M161.3,159.9
	c-3.6-1.6-5.9-7.6-6.6-9.4c0.2-0.3,0.4-0.6,0.6-1c1.8,1.1,3.9,1.7,6.1,1.7c1.8,0,3.4-0.4,4.9-1.1c0.2,0.8,0.5,1.5,0.9,2.2
	C166.1,154.8,164.1,158.6,161.3,159.9z"/>
<g id="Grass">
	<path id="Grass-2" fill="#E8E8E8" d="M165.6,181.4c0,0-4.6-14.8-3.6-10.9c0.9,3.6,1.9,10.9,1.9,10.9s-3.4-8.6-4.4-13.4
		c-0.8-3.4,1.8,13.4,1.1,13.4c-1.8,0-1-10.9-4.3-16.6c-0.4-0.8,4.4,14.6,1.1,16.3c-2.9,1.6-1.6-6.5-1.6-6.5s-2,4.9-2.9,6.6
		c-1,1.9-4.9-5-5.8-8.1c-0.1-0.6,0.6,8.4,0.6,8.4H165.6z"/>
	<path id="Grass-1" fill="#E8E8E8" d="M158.6,181.4c0,0,3.4-11.1,2.7-8.1c-0.7,2.7-1.4,8.1-1.4,8.1s2.5-6.4,3.3-10.1
		c0.6-2.5-1.3,10.1-0.9,10.1c1.3,0,0.8-8.2,3.2-12.4c0.4-0.6-3.3,10.9-0.9,12.1c2.1,1.1,1.2-4.9,1.2-4.9s1.5,3.6,2.2,4.9
		c0.8,1.4,3.6-3.8,4.3-6.1c0.1-0.4-0.4,6.3-0.4,6.3L158.6,181.4L158.6,181.4z"/>
	<path id="Grass-10" fill="#E8E8E8" d="M42.6,181.4c0,0,4.7-14.8,3.6-10.9c-1,3.6-1.9,10.9-1.9,10.9s3.4-8.6,4.5-13.4
		c0.8-3.4-1.8,13.4-1.2,13.4c1.8,0,1-10.9,4.3-16.6c0.5-0.8-4.4,14.6-1.1,16.3c2.9,1.6,1.6-6.5,1.6-6.5s2,4.9,3,6.6
		c1,1.9,4.8-5,5.8-8.1c0.2-0.6-0.6,8.4-0.6,8.4H42.6z"/>
	<path id="Grass-9" fill="#E8E8E8" d="M49.5,181.4c0,0-3.5-11.1-2.7-8.1c0.7,2.7,1.4,8.1,1.4,8.1s-2.5-6.4-3.3-10.1
		c-0.5-2.5,1.3,10.1,0.8,10.1c-1.3,0-0.8-8.2-3.2-12.4c-0.3-0.6,3.3,10.9,0.8,12.1c-2.2,1.1-1.2-4.9-1.2-4.9s-1.5,3.6-2.2,4.9
		c-0.8,1.4-3.6-3.8-4.3-6.1c-0.1-0.4,0.5,6.3,0.5,6.3L49.5,181.4L49.5,181.4z"/>
	<path id="Grass-8" fill="#E8E8E8" d="M82.3,181.4c0,0,4.7-14.8,3.6-10.9c-0.9,3.6-1.9,10.9-1.9,10.9s3.4-8.6,4.4-13.4
		c0.8-3.4-1.8,13.4-1.2,13.4c1.8,0,1-10.9,4.3-16.6c0.4-0.8-4.4,14.6-1.1,16.3c2.9,1.6,1.6-6.5,1.6-6.5s2,4.9,2.9,6.6
		c1,1.9,4.8-5,5.8-8.1c0.2-0.6-0.6,8.4-0.6,8.4H82.3z"/>
	<path id="Grass-7" fill="#E8E8E8" d="M89.3,181.4c0,0-3.4-11.1-2.7-8.1c0.7,2.7,1.4,8.1,1.4,8.1s-2.5-6.4-3.3-10.1
		c-0.6-2.5,1.3,10.1,0.8,10.1c-1.3,0-0.8-8.2-3.2-12.4c-0.3-0.6,3.3,10.9,0.8,12.1c-2.2,1.1-1.2-4.9-1.2-4.9s-1.5,3.6-2.2,4.9
		c-0.8,1.4-3.6-3.8-4.3-6.1c-0.1-0.4,0.4,6.3,0.4,6.3L89.3,181.4L89.3,181.4z"/>
	<path id="Grass-6" fill="#E8E8E8" d="M106.3,181.4c0,0,4.7-14.8,3.6-10.9c-0.9,3.6-1.9,10.9-1.9,10.9s3.4-8.6,4.4-13.4
		c0.8-3.4-1.8,13.4-1.2,13.4c1.8,0,1-10.9,4.3-16.6c0.4-0.8-4.4,14.6-1.1,16.3c2.9,1.6,1.6-6.5,1.6-6.5s2,4.9,2.9,6.6
		c1,1.9,4.8-5,5.8-8.1c0.2-0.6-0.6,8.4-0.6,8.4H106.3z"/>
	<path id="Grass-5" fill="#E8E8E8" d="M113.2,181.4c0,0-3.4-11.1-2.7-8.1c0.7,2.7,1.4,8.1,1.4,8.1s-2.5-6.4-3.3-10.1
		c-0.6-2.5,1.3,10.1,0.8,10.1c-1.3,0-0.8-8.2-3.2-12.4c-0.3-0.6,3.3,10.9,0.8,12.1c-2.2,1.1-1.2-4.9-1.2-4.9s-1.5,3.6-2.2,4.9
		c-0.8,1.4-3.6-3.8-4.3-6.1c-0.1-0.4,0.4,6.3,0.4,6.3L113.2,181.4L113.2,181.4z"/>
	<path id="Grass-4" fill="#E8E8E8" d="M142.1,181.4c0,0-4.6-14.8-3.6-10.9c0.9,3.6,1.9,10.9,1.9,10.9s-3.4-8.6-4.4-13.4
		c-0.8-3.4,1.8,13.4,1.1,13.4c-1.8,0-1-10.9-4.3-16.6c-0.4-0.8,4.4,14.6,1.1,16.3c-2.9,1.6-1.6-6.5-1.6-6.5s-2,4.9-2.9,6.6
		c-1,1.9-4.8-5-5.8-8.1c-0.2-0.6,0.6,8.4,0.6,8.4H142.1z"/>
	<path id="Grass-3" fill="#E8E8E8" d="M135.1,181.4c0,0,3.4-11.1,2.7-8.1c-0.7,2.7-1.4,8.1-1.4,8.1s2.5-6.4,3.3-10.1
		c0.6-2.5-1.3,10.1-0.9,10.1c1.3,0,0.8-8.2,3.2-12.4c0.4-0.6-3.3,10.9-0.9,12.1c2.1,1.1,1.2-4.9,1.2-4.9s1.5,3.6,2.2,4.9
		c0.8,1.4,3.6-3.8,4.3-6.1c0.1-0.4-0.4,6.3-0.4,6.3L135.1,181.4L135.1,181.4z"/>
</g>
</svg>
