<?xml version="1.0" encoding="utf-8"?>
<!-- Generator: Adobe Illustrator 18.1.1, SVG Export Plug-In . SVG Version: 6.00 Build 0)  -->
<svg version="1.1" id="Layer_1" xmlns="http://www.w3.org/2000/svg" xmlns:xlink="http://www.w3.org/1999/xlink" x="0px" y="0px"
	 viewBox="0 0 200 200" enable-background="new 0 0 200 200" xml:space="preserve">
<path id="Tooth" fill="#E8E8E8" d="M164.7,16.4c-1.4-2.8-3.3-5.5-5.7-7.3c-7.1-5.2-27.4-5.7-40.6,0c-7.2,3.1-12,3.6-14.9,3.5
	c-2.4-0.1-4.7-0.1-7.1,0c-2.9,0.1-7.7-0.5-14.9-3.5C68.4,3.4,48.1,3.9,41,9.1c-2.4,1.8-4.3,4.5-5.7,7.3c-3.2,6.5-4.2,13.8-3,20.9
	c1,5.9,3.2,14.5,7.7,26.5c9.9,26,9.4,37.3,9.4,37.3s-4.2,83,29.3,93.9c1.9,0.6-1.6-22.7-2.8-40.6c-1.9-26.9,2.2-41.1,6.1-46.8
	c3.6-5.3,9.3-10,17.9-9.3c8.7-0.6,14.3,4.1,17.9,9.3c3.9,5.7,8,19.9,6.1,46.8c-1.3,17.9-4.7,41.2-2.8,40.6
	c33.5-10.9,29.3-93.9,29.3-93.9s-0.5-11.3,9.4-37.3c4.6-12,6.7-20.6,7.7-26.5C168.9,30.2,167.9,22.9,164.7,16.4z"/>
</svg>
