<?xml version="1.0" encoding="utf-8"?>
<!-- Generator: Adobe Illustrator 18.1.1, SVG Export Plug-In . SVG Version: 6.00 Build 0)  -->
<svg version="1.1" id="Layer_4" xmlns="http://www.w3.org/2000/svg" xmlns:xlink="http://www.w3.org/1999/xlink" x="0px" y="0px"
	 viewBox="0 0 300 300" enable-background="new 0 0 300 300" xml:space="preserve">
<g id="Layer_2">
	<path fill="#FFFFFF" d="M21.6,53.1v193.9h9.2V210h18.5v36.9h120V53.1H21.6z M67.8,64.8h18.5v18.5H67.8V64.8z M67.8,101.7h18.5v18.5
		H67.8V101.7z M67.8,138.6h18.5v18.5H67.8V138.6z M49.3,194H30.9v-18.5h18.5V194z M49.3,157.1H30.9v-18.5h18.5V157.1z M49.3,120.2
		H30.9v-18.5h18.5V120.2z M49.3,83.2H30.9V64.8h18.5V83.2z M67.8,175.5h18.5V194H67.8V175.5z M86.7,228.5H68.2V210h18.5V228.5z
		 M123.2,228.5h-18.5V210h18.5V228.5z M123.2,194h-18.5v-18.5h18.5V194z M123.2,157.1h-18.5v-18.5h18.5V157.1z M123.2,120.2h-18.5
		v-18.5h18.5V120.2z M123.2,83.2h-18.5V64.8h18.5V83.2z M160.1,228.5h-18.5V210h18.5V228.5z M160.1,194h-18.5v-18.5h18.5V194z
		 M160.1,157.1h-18.5v-18.5h18.5V157.1z M160.1,120.2h-18.5v-18.5h18.5V120.2z M160.1,83.2h-18.5V64.8h18.5V83.2z"/>
	<path fill="#FFFFFF" d="M188.7,123.3v123.6h5.9v-23.5h11.8v23.5h76.5V123.3H188.7z M218.1,130.8h11.8v11.8h-11.8V130.8z
		 M218.1,154.3h11.8v11.8h-11.8V154.3z M218.1,177.9h11.8v11.8h-11.8V177.9z M206.4,213.2h-11.8v-11.8h11.8V213.2z M206.4,189.6
		h-11.8v-11.8h11.8V189.6z M206.4,166.1h-11.8v-11.8h11.8V166.1z M206.4,142.6h-11.8v-11.8h11.8V142.6z M218.1,201.4h11.8v11.8
		h-11.8V201.4z M230.2,235.2h-11.8v-11.8h11.8V235.2z M253.4,235.2h-11.8v-11.8h11.8V235.2z M253.4,213.2h-11.8v-11.8h11.8V213.2z
		 M253.4,189.6h-11.8v-11.8h11.8V189.6z M253.4,166.1h-11.8v-11.8h11.8V166.1z M253.4,142.6h-11.8v-11.8h11.8V142.6z M277,235.2
		h-11.8v-11.8H277V235.2z M277,213.2h-11.8v-11.8H277V213.2z M277,189.6h-11.8v-11.8H277V189.6z M277,166.1h-11.8v-11.8H277V166.1z
		 M277,142.6h-11.8v-11.8H277V142.6z"/>
</g>
</svg>
