<?xml version="1.0" encoding="utf-8"?>
<!-- Generator: Adobe Illustrator 18.1.1, SVG Export Plug-In . SVG Version: 6.00 Build 0)  -->
<svg version="1.1" id="Layer_2" xmlns="http://www.w3.org/2000/svg" xmlns:xlink="http://www.w3.org/1999/xlink" x="0px" y="0px"
	 viewBox="0 0 300 300" enable-background="new 0 0 300 300" xml:space="preserve">
<path fill="#FFFFFF" d="M73.3,209.8H32.1c-2.9,0-5.3-2.4-5.3-5.3V81.7c0-2.9,2.4-5.3,5.3-5.3h41.1c2.9,0,5.3,2.4,5.3,5.3v122.8
	C78.6,207.4,76.2,209.8,73.3,209.8z"/>
<path fill="#FFFFFF" d="M260.9,76.3H112.4c-6.8,0-12.3,5.5-12.3,12.3v79.4c0,6.8,5.5,12.3,12.3,12.3h148.5c6.8,0,12.3-5.5,12.3-12.3
	V88.7C273.2,81.9,267.7,76.3,260.9,76.3z M253.2,156.1c0,6.8-5.5,12.3-12.3,12.3H132.4c-6.8,0-12.3-5.5-12.3-12.3v-55.4
	c0-6.8,5.5-12.3,12.3-12.3h108.5c6.8,0,12.3,5.5,12.3,12.3V156.1z"/>
<path fill="#FFFFFF" d="M197.5,189.8v-4.4H195h-16.6h-2.6v4.4c0,7.8-6.3,14.1-14.1,14.1h0v5.9h16.6H195h16.6v-5.9h0
	C203.8,203.9,197.5,197.6,197.5,189.8z"/>
<rect x="181.4" y="121" fill="#FFFFFF" width="9.6" height="36.3"/>
<rect x="181.4" y="102.5" fill="#FFFFFF" width="9.6" height="9.6"/>
</svg>
