<?xml version="1.0" encoding="utf-8"?>
<!-- Generator: Adobe Illustrator 18.1.1, SVG Export Plug-In . SVG Version: 6.00 Build 0)  -->
<svg version="1.1" id="Layer_3" xmlns="http://www.w3.org/2000/svg" xmlns:xlink="http://www.w3.org/1999/xlink" x="0px" y="0px"
	 viewBox="0 0 300 300" enable-background="new 0 0 300 300" xml:space="preserve">
<path fill="#FFFFFF" d="M256.8,62.9l6.2-1.6L226.4,44l-76.7,28.2L73.1,44L36.6,61.3l6.2,1.6c32,8.2,44.3,47.9,21.6,72
	C51.9,148,32.9,152,9.7,138.5l140,133.4l140-133.4c-23.1,13.4-42.2,9.5-54.6-3.6C212.5,110.8,224.7,71.1,256.8,62.9z M207.2,106.9
	c-17.6,4.5-23.9,26.5-11,39.3c0.2,0.2,0.4,0.4,0.6,0.5c8,7.4,8.1,20,0.2,27.5l-47.2,45l-47.2-45c-7.9-7.5-7.8-20.1,0.2-27.5
	c0.2-0.2,0.4-0.4,0.6-0.5c12.9-12.7,6.6-34.8-11-39.3L89,106l19.6-9.3l41.2,15.2l41.2-15.2l19.6,9.3L207.2,106.9z"/>
<text transform="matrix(1 0 0 1 134.3388 151.0449)" fill="#FFFFFF" font-family="'MyriadPro-Regular'" font-size="36">Ф</text>
<text transform="matrix(1 0 0 1 138.9692 192.6288)" fill="#FFFFFF" font-family="'MyriadPro-Regular'" font-size="36">К</text>
</svg>
