<?xml version="1.0" encoding="utf-8"?>
<!-- Generator: Adobe Illustrator 18.1.1, SVG Export Plug-In . SVG Version: 6.00 Build 0)  -->
<svg version="1.1" xmlns="http://www.w3.org/2000/svg" xmlns:xlink="http://www.w3.org/1999/xlink" x="0px" y="0px"
	 viewBox="0 0 300 300" enable-background="new 0 0 300 300" xml:space="preserve">
<g id="Layer_4">
	<path fill="none" stroke="#FFFFFF" stroke-width="7" stroke-miterlimit="10" d="M34.2,85.9v124.3h0c14.3,5.3,30.1,5.3,44.4,0h0
		V85.9"/>
	<path fill="#FFFFFF" d="M69.4,201.1L69.4,201.1c-8.4,2.9-17.5,2.9-26,0h0V91.5l0,0c7.8,5.8,18.2,5.8,26,0l0,0V201.1z"/>
	<path fill="none" stroke="#FFFFFF" stroke-width="7" stroke-miterlimit="10" d="M94,85.9v124.3h0c14.3,5.3,30.1,5.3,44.4,0h0V85.9"
		/>
	<path fill="#FFFFFF" d="M129.2,201.1L129.2,201.1c-8.4,2.9-17.5,2.9-26,0h0V91.5l0,0c7.8,5.8,18.2,5.8,26,0l0,0V201.1z"/>
	<path fill="none" stroke="#FFFFFF" stroke-width="7" stroke-miterlimit="10" d="M282.6,169.7H158.4v0c-5.3,14.3-6.4,30.1-1.1,44.4
		l1.1,0c0,0,8.6,0,8.6,0h115.6"/>
	<path fill="#FFFFFF" d="M167.4,204.9L167.4,204.9c-2.9-8.4-2.9-17.5,0-26l0,0H277l0,0c-5.8,7.8-5.8,18.2,0,26v0H167.4z"/>
</g>
<g id="Layer_2">
</g>
</svg>
