<?xml version="1.0" encoding="utf-8"?>
<!-- Generator: Adobe Illustrator 18.1.1, SVG Export Plug-In . SVG Version: 6.00 Build 0)  -->
<svg version="1.1" id="Layer_2" xmlns="http://www.w3.org/2000/svg" xmlns:xlink="http://www.w3.org/1999/xlink" x="0px" y="0px"
	 viewBox="0 0 300 300" enable-background="new 0 0 300 300" xml:space="preserve">
<path id="Face" fill="#FFFFFF" d="M191,187.1c0-3.9-11.4-4-14.9-4.4c-1-0.1-2-0.4-2.9-0.8l-4-2.1c-0.9-0.4-1.4-1.3-1.4-2.3l0.1-9.6
	c0,0-6.5,4.5-8.4,5.9l9.8-9.1c0,0,9-11.2,7.8-38.3c-1.1-25.1-24.9-25.2-26.1-25.1c-1.2-0.1-25,0-26.1,25.1
	c-1.2,27.1,7.8,38.3,7.8,38.3l9.8,9.1c-1.9-1.4-8.4-5.9-8.4-5.9l0.1,9.6c0,1-0.5,1.8-1.4,2.3l-4,2.1c-0.9,0.4-1.9,0.7-2.9,0.8
	c-3.5,0.4-14.8,0.5-14.8,4.4c0,2.1,15.7,17.5,39.9,17.5v0c0,0,0,0,0,0c0,0,0,0,0,0v0C175.3,204.6,191,189.8,191,187.1z"/>
<path id="Face_1_" fill="#FFFFFF" d="M280,262.5c0-3.9-11.4-4-14.9-4.4c-1-0.1-2-0.4-2.9-0.8l-4-2.1c-0.9-0.4-1.4-1.3-1.4-2.3
	l0.1-9.6c0,0-6.5,4.5-8.4,5.9l9.8-9.1c0,0,9-11.2,7.8-38.3c-1.1-25.1-24.9-25.2-26.1-25.1c-1.2-0.1-25,0-26.1,25.1
	c-1.2,27.1,7.8,38.3,7.8,38.3l9.8,9.1c-1.9-1.4-8.4-5.9-8.4-5.9l0.1,9.6c0,1-0.5,1.8-1.4,2.3l-4,2.1c-0.9,0.4-1.9,0.7-2.9,0.8
	c-3.5,0.4-14.8,0.5-14.8,4.4c0,2.1,15.7,17.5,39.9,17.5v0c0,0,0,0,0,0c0,0,0,0,0,0v0C264.3,280,280,265.2,280,262.5z"/>
<path id="Face_2_" fill="#FFFFFF" d="M100,262.5c0-3.9-11.4-4-14.9-4.4c-1-0.1-2-0.4-2.9-0.8l-4-2.1c-0.9-0.4-1.4-1.3-1.4-2.3
	l0.1-9.6c0,0-6.5,4.5-8.4,5.9l9.8-9.1c0,0,9-11.2,7.8-38.3C85,176.7,61.1,176.6,60,176.6c-1.2-0.1-25,0-26.1,25.1
	c-1.2,27.1,7.8,38.3,7.8,38.3l9.8,9.1c-1.9-1.4-8.4-5.9-8.4-5.9l0.1,9.6c0,1-0.5,1.8-1.4,2.3l-4,2.1c-0.9,0.4-1.9,0.7-2.9,0.8
	c-3.5,0.4-14.8,0.5-14.8,4.4c0,2.1,15.7,17.5,39.9,17.5v0c0,0,0,0,0,0c0,0,0,0,0,0v0C84.3,280,100,265.2,100,262.5z"/>
<path id="Face_3_" fill="#FFFFFF" d="M100,105.8c0-3.9-11.4-4-14.9-4.4c-1-0.1-2-0.4-2.9-0.8l-4-2.1c-0.9-0.4-1.4-1.3-1.4-2.3
	l0.1-9.6c0,0-6.5,4.5-8.4,5.9l9.8-9.1c0,0,9-11.2,7.8-38.3C85,20,61.1,19.9,60,20c-1.2-0.1-25,0-26.1,25.1
	c-1.2,27.1,7.8,38.3,7.8,38.3l9.8,9.1c-1.9-1.4-8.4-5.9-8.4-5.9l0.1,9.6c0,1-0.5,1.8-1.4,2.3l-4,2.1c-0.9,0.4-1.9,0.7-2.9,0.8
	c-3.5,0.4-14.8,0.5-14.8,4.4c0,2.1,15.7,17.5,39.9,17.5v0c0,0,0,0,0,0c0,0,0,0,0,0v0C84.3,123.3,100,108.5,100,105.8z"/>
<path id="Face_4_" fill="#FFFFFF" d="M281,105.8c0-3.9-11.4-4-14.9-4.4c-1-0.1-2-0.4-2.9-0.8l-4-2.1c-0.9-0.4-1.4-1.3-1.4-2.3
	l0.1-9.6c0,0-6.5,4.5-8.4,5.9l9.8-9.1c0,0,9-11.2,7.8-38.3C266,20,242.1,19.9,241,20c-1.2-0.1-25,0-26.1,25.1
	c-1.2,27.1,7.8,38.3,7.8,38.3l9.8,9.1c-1.9-1.4-8.4-5.9-8.4-5.9l0.1,9.6c0,1-0.5,1.8-1.4,2.3l-4,2.1c-0.9,0.4-1.9,0.7-2.9,0.8
	c-3.5,0.4-14.8,0.5-14.8,4.4c0,2.1,15.7,17.5,39.9,17.5v0c0,0,0,0,0,0c0,0,0,0,0,0v0C265.3,123.3,281,108.5,281,105.8z"/>
</svg>
