<?xml version="1.0" encoding="utf-8"?>
<!-- Generator: Adobe Illustrator 18.1.1, SVG Export Plug-In . SVG Version: 6.00 Build 0)  -->
<svg version="1.1" xmlns="http://www.w3.org/2000/svg" xmlns:xlink="http://www.w3.org/1999/xlink" x="0px" y="0px"
	 viewBox="0 0 300 300" enable-background="new 0 0 300 300" xml:space="preserve">
<g id="Layer_3">
</g>
<g id="Layer_1">
	<circle fill="none" stroke="#FFFFFF" stroke-width="10" stroke-miterlimit="10" cx="150" cy="150" r="140"/>
	<path fill="#FFFFFF" d="M36,108c-13.4,26.4-13.4,57.6,0,84v0l51.3-15.3V150v-26.7L36,108z"/>
	<path fill="#FFFFFF" d="M264,108l-51.3,15.3V150v26.7L264,192v0C276.9,165.5,276.9,134.5,264,108z"/>
	<path fill="#FFFFFF" d="M96.8,37.9c-20.6,9.5-42.1,25.7-54.1,53.2c4.8-1.8,9.7-3,14.8-3.5l5.5-0.5c29.9-2.8,59.9,2.6,87,15.6h0h0
		c27-13,57.1-18.4,87-15.6l5.5,0.5c5.1,0.5,10.1,1.7,14.8,3.5c-12-27.5-33.5-43.7-54.1-53.2C169.5,22.3,130.5,22.3,96.8,37.9z"/>
	<path fill="#FFFFFF" d="M184.2,185H150h-34.1L65,234.3l0.4,0.3c48.1,43.1,121,42.9,169-0.3l0,0l0,0L184.2,185z M147.1,192h0.5h4.5
		h0.5l0.9,7h-1.4h-4.5h-1.4L147.1,192z M144.9,209h2.8h4.5h2.8l1.7,13.2h-4.5h-4.5h-4.5L144.9,209z M152.1,250.4h-4.5h-8.2l2.4-18.2
		h5.8h4.5h5.8l2.4,18.2H152.1z"/>
	<polygon fill="#FFFFFF" points="137.5,126.7 131.5,126.7 123.1,143.6 114.7,126.7 108.7,126.7 120.3,149.2 108.7,172.8 
		113.7,172.8 123.1,154.7 132.5,172.8 137.5,172.8 125.9,149.2 	"/>
	<polygon fill="#FFFFFF" points="170.8,126.7 152.5,126.7 147.4,126.7 147.4,131.8 147.4,172.8 152.5,172.8 152.5,131.8 
		170.8,131.8 170.8,172.8 175.8,172.8 175.8,131.8 175.8,126.7 	"/>
	<rect x="185.6" y="126.7" fill="#FFFFFF" width="5.1" height="46.1"/>
</g>
</svg>
