<?xml version="1.0" encoding="utf-8"?>
<!-- Generator: Adobe Illustrator 18.1.1, SVG Export Plug-In . SVG Version: 6.00 Build 0)  -->
<svg version="1.1" id="Layer_1" xmlns="http://www.w3.org/2000/svg" xmlns:xlink="http://www.w3.org/1999/xlink" x="0px" y="0px"
	 viewBox="0 0 400 200" enable-background="new 0 0 400 200" xml:space="preserve">
<g>
	<path d="M213,33.8c-4.7,40.4-13.2,80.4-25.3,119.3"/>
	<g>
		<path fill="#171617" d="M205.5,46.1c-4.7,39.9-13,79.4-24.9,117.8c-1.7,5.6,4-2.9,4.5-3.6c3.6-5.4,7.8-11.7,9.8-18
			c12.2-39.4,20.9-79.8,25.8-120.8c0.2-1.7-1.7,0.7-1.8,0.7c-2,2-3.6,5.1-5.1,7.4C211,34.2,206.1,40.5,205.5,46.1L205.5,46.1z"/>
	</g>
</g>
<g>
	<path d="M211.2,33.7c-1.4,3.2-3.7,5.9-6.1,8.5c-11.6,12.9-24.4,24.7-38.2,35.3"/>
	<g>
		<path fill="#171617" d="M206.3,39.6c7.9-11.7,9.8-15.1,5.8-10.3c-0.8,0.9-1.6,1.8-2.4,2.6c-1.7,1.8-3.4,3.6-5.1,5.4
			c-3.1,3.2-6.3,6.4-9.6,9.4c-6.8,6.3-13.9,12.3-21.2,18c-4.5,3.5-7.5,10.6-10.1,15.5c-1.4,2.6-3.1,5.3-3.9,8.1
			c-0.1,0.4-1.1,2.9,0.2,1.9c22.1-17.2,43.6-37,56.1-62.5c0.4-0.9,4.9-9.9,0.9-5.7C212.5,26.8,209.1,33.9,206.3,39.6L206.3,39.6z"/>
	</g>
</g>
<g>
	<path d="M215,27c-0.3,3.2,0.9,6.3,2,9.3c5.8,15.3,10.5,30.9,14.1,46.9"/>
	<g>
		<path fill="#171617" d="M207.4,39.3c-0.1,4.2,1.3,7.8,2.7,11.7c1.9,5,3.6,10,5.2,15.1c3.2,9.9,5.9,19.9,8.2,30
			c0.1,0.5,3.7-4,3.1-3.3c2.1-2.8,3.9-5.9,5.7-9c1.8-3.1,3.5-6.2,4.9-9.4c0.5-1.2,1.6-3,1.3-4.3c-2.2-9.5-4.7-18.9-7.6-28.2
			c-1.4-4.5-2.9-9-4.5-13.4c-1.6-4.5-4-9.1-3.9-13.9c0-1.6-1.5,0.4-1.8,0.7c-2,2-3.6,5.1-5.1,7.4c-2,3.3-3.9,6.6-5.6,10.1
			C209.2,34.8,207.5,37.3,207.4,39.3L207.4,39.3z"/>
	</g>
</g>
<g>
	<path d="M213.3,38.4c-1.4,7.1-6.8,12.8-12.4,17.4c-10,8.1-21.4,14.1-32.8,20"/>
	<g>
		<path fill="#171617" d="M205.7,50.7c-1.9,6.8,0.8,2.5,7.8-13c-0.7,0.8-1.4,1.6-2.2,2.3c-1.1,1.1-2.3,2.1-3.6,3.1
			c-3.4,2.8-7,5.3-10.7,7.6c-7.1,4.6-14.7,8.5-22.2,12.4c-1.5,0.8-3.5,4.4-4.2,5.5c-2.1,3.2-4.1,6.6-5.9,9.9
			c-1.4,2.6-3.1,5.3-3.9,8.1c-0.2,0.6-1.1,2.6,0.2,1.9c11.8-6.2,23.8-12.4,34-21c5-4.3,9-9.3,12.6-14.8c5.3-8.1,10.8-17.1,13.1-26.6
			c0.4-1.9-2,1-1.8,0.7c-2,2-3.6,5.1-5.1,7.4C211,39.2,207.1,44.9,205.7,50.7L205.7,50.7z"/>
	</g>
</g>
</svg>
