<?xml version="1.0" encoding="utf-8"?>
<!-- Generator: Adobe Illustrator 18.1.1, SVG Export Plug-In . SVG Version: 6.00 Build 0)  -->
<svg version="1.1" id="skype_1_" xmlns="http://www.w3.org/2000/svg" xmlns:xlink="http://www.w3.org/1999/xlink" x="0px" y="0px"
	 viewBox="0 0 100 100" enable-background="new 0 0 100 100" xml:space="preserve">
<g id="skype">
	<g>
		<path fill="#212121" d="M50,0C22.4,0,0,22.4,0,50s22.4,50,50,50s50-22.4,50-50S77.6,0,50,0z"/>
	</g>
	<path fill="#FFFFFF" d="M52.3,70.4C44,70.8,40.2,69,36.6,65.6c-4-3.8-2.4-8.1,0.9-8.3c3.2-0.2,5.2,3.7,6.9,4.8s8.3,3.6,11.7-0.4
		c3.8-4.4-2.5-6.6-7.1-7.3c-6.5-1-14.8-4.6-14.2-11.7s5.9-10.8,11.5-11.3c7.1-0.7,11.7,1.1,15.3,4.3c4.2,3.7,1.9,7.8-0.8,8.1
		s-5.7-6-11.6-6.1c-6.1-0.1-10.2,6.5-2.7,8.3c7.5,1.9,15.6,2.6,18.5,9.6C68,62.5,60.6,69.9,52.3,70.4z M75.6,53.7
		c0.2-1.2,0.2-2.4,0.2-3.6c0-14.5-11.6-26.2-26-26.2c-1.4,0-2.8,0.1-4.2,0.3c-2.4-1.6-5.3-2.6-8.5-2.6c-8.6,0-15.5,7-15.5,15.7
		c0,3.2,0.9,6.1,2.5,8.6c-0.2,1.3-0.3,2.7-0.3,4.1c0,14.5,11.6,26.2,26,26.2c1.6,0,3.2-0.2,4.7-0.4c2.4,1.5,5.2,2.4,8.2,2.4
		c8.6,0,15.5-7,15.5-15.7C78.3,59.3,77.3,56.2,75.6,53.7z"/>
</g>
</svg>
